<svg width="36" height="36" viewBox="0 0 36 36" fill="none" xmlns="http://www.w3.org/2000/svg">
<path d="M17.4486 24.1328C16.4193 24.1328 15.5859 24.9906 15.5859 26.02C15.5859 27.0248 16.3947 27.9072 17.4486 27.9072C18.5024 27.9072 19.3358 27.0249 19.3358 26.02C19.3358 24.9906 18.478 24.1328 17.4486 24.1328Z" fill="#CE833F"/>
<path d="M17.7677 9.84399C14.459 9.84399 12.9395 11.8047 12.9395 13.1281C12.9395 14.084 13.7482 14.5252 14.41 14.5252C15.7334 14.5252 15.1942 12.638 17.6941 12.638C18.9196 12.638 19.9 13.1772 19.9 14.3046C19.9 15.6282 18.5275 16.3879 17.7187 17.0741C17.0079 17.6869 16.0766 18.6918 16.0766 20.7995C16.0766 22.0739 16.4196 22.4416 17.4245 22.4416C18.6255 22.4416 18.8705 21.9024 18.8705 21.4368C18.8705 20.1623 18.8951 19.427 20.2431 18.3732C20.9048 17.8585 22.9881 16.1919 22.9881 13.888C22.9881 11.5842 20.9048 9.84399 17.7677 9.84399Z" fill="#CE833F"/>
<path d="M18 0C8.05191 0 0 8.05057 0 18V34.5938C0 35.3704 0.629578 36 1.40625 36H18C27.948 36 36 27.9494 36 18C36 8.05191 27.9494 0 18 0ZM18 33.1875H2.8125V18C2.8125 9.60631 9.60518 2.8125 18 2.8125C26.3937 2.8125 33.1875 9.60518 33.1875 18C33.1875 26.3937 26.3948 33.1875 18 33.1875Z" fill="#CE833F"/>
</svg>
