<svg width="32" height="32" viewBox="0 0 32 32" fill="none" xmlns="http://www.w3.org/2000/svg">
<path d="M15.5092 21.4513C14.5943 21.4513 13.8535 22.2138 13.8535 23.1288C13.8535 24.022 14.5724 24.8063 15.5092 24.8063C16.4459 24.8063 17.1867 24.022 17.1867 23.1288C17.1867 22.2138 16.4243 21.4513 15.5092 21.4513Z" fill="#F9C18F"/>
<path d="M15.7917 8.75018C12.8507 8.75018 11.5 10.493 11.5 11.6694C11.5 12.5191 12.2189 12.9112 12.8071 12.9112C13.9835 12.9112 13.5042 11.2337 15.7264 11.2337C16.8157 11.2337 17.6871 11.7131 17.6871 12.7152C17.6871 13.8917 16.4671 14.567 15.7482 15.177C15.1164 15.7216 14.2886 16.6149 14.2886 18.4884C14.2886 19.6212 14.5935 19.948 15.4867 19.948C16.5542 19.948 16.7721 19.4688 16.7721 19.0549C16.7721 17.922 16.7939 17.2684 17.9921 16.3317C18.5803 15.8742 20.4321 14.3927 20.4321 12.3449C20.4321 10.297 18.5803 8.75018 15.7917 8.75018Z" fill="#F9C18F"/>
<path d="M16 0C7.15725 0 0 7.15606 0 16V30.75C0 31.4404 0.559625 32 1.25 32H16C24.8427 32 32 24.8439 32 16C32 7.15725 24.8439 0 16 0ZM16 29.5H2.5V16C2.5 8.53894 8.53794 2.5 16 2.5C23.4611 2.5 29.5 8.53794 29.5 16C29.5 23.4611 23.4621 29.5 16 29.5Z" fill="#F9C18F"/>
</svg>
