<svg width="32" height="28" viewBox="0 0 32 28" fill="none" xmlns="http://www.w3.org/2000/svg">
<path d="M31.9923 7.80536C31.9923 7.8019 31.9927 7.79844 31.9927 7.79497C31.9927 3.5879 28.5823 0.17749 24.3752 0.17749C20.1682 0.17749 16.7578 3.58784 16.7578 7.79497C16.7578 12.0021 20.1685 15.4125 24.3753 15.4125C25.2399 15.4125 26.0676 15.2617 26.842 14.9962C25.1282 24.8278 17.4614 31.1681 24.5684 25.9499C32.4491 20.1634 32.0012 8.02739 31.9923 7.80536Z" fill="#CE833F"/>
<path d="M7.61748 15.4124C8.4821 15.4124 9.30974 15.2617 10.0845 14.9961C8.3703 24.8277 0.703498 31.1681 7.8106 25.9498C15.6913 20.1634 15.2434 8.02739 15.2345 7.80537C15.2345 7.8019 15.2349 7.79844 15.2349 7.79497C15.2349 3.5879 11.8245 0.17749 7.61748 0.17749C3.41035 0.17749 0 3.58784 0 7.79497C0 12.0021 3.41073 15.4124 7.61748 15.4124Z" fill="#CE833F"/>
</svg>
