<svg width="478" height="180" viewBox="0 0 478 180" fill="none" xmlns="http://www.w3.org/2000/svg">
<mask id="mask0" mask-type="alpha" maskUnits="userSpaceOnUse" x="0" y="0" width="478" height="180">
<rect x="0.380859" width="476.887" height="180" rx="5" fill="#0EB155"/>
</mask>
<g mask="url(#mask0)">
<circle cx="0.508279" cy="2.41239" r="2.90281" fill="white" fill-opacity="0.12"/>
<rect x="-1.56543" y="6.5592" width="4.14687" height="17.4169" fill="white" fill-opacity="0.12"/>
<path fill-rule="evenodd" clip-rule="evenodd" d="M12.9483 24.3907V6.14447C7.90975 6.14447 3.8252 10.229 3.8252 15.2676C3.8252 20.3061 7.90975 24.3907 12.9483 24.3907Z" fill="white" fill-opacity="0.12"/>
<circle cx="40.7329" cy="2.41239" r="2.90281" fill="white" fill-opacity="0.12"/>
<rect x="38.6592" y="6.5592" width="4.14687" height="17.4169" fill="white" fill-opacity="0.12"/>
<path fill-rule="evenodd" clip-rule="evenodd" d="M53.1729 24.3907V6.14447C48.1344 6.14447 44.0498 10.229 44.0498 15.2676C44.0498 20.3061 48.1344 24.3907 53.1729 24.3907Z" fill="white" fill-opacity="0.12"/>
<circle cx="80.9575" cy="2.41239" r="2.90281" fill="white" fill-opacity="0.12"/>
<rect x="78.8838" y="6.5592" width="4.14687" height="17.4169" fill="white" fill-opacity="0.12"/>
<path fill-rule="evenodd" clip-rule="evenodd" d="M93.3975 24.3907V6.14447C88.359 6.14447 84.2744 10.229 84.2744 15.2676C84.2744 20.3061 88.359 24.3907 93.3975 24.3907Z" fill="white" fill-opacity="0.12"/>
<circle cx="121.182" cy="2.41239" r="2.90281" fill="white" fill-opacity="0.12"/>
<rect x="119.109" y="6.5592" width="4.14687" height="17.4169" fill="white" fill-opacity="0.12"/>
<path fill-rule="evenodd" clip-rule="evenodd" d="M133.623 24.3907V6.14447C128.585 6.14447 124.5 10.229 124.5 15.2676C124.5 20.3061 128.585 24.3907 133.623 24.3907Z" fill="white" fill-opacity="0.12"/>
<circle cx="161.408" cy="2.41239" r="2.90281" fill="white" fill-opacity="0.12"/>
<rect x="159.334" y="6.5592" width="4.14687" height="17.4169" fill="white" fill-opacity="0.12"/>
<path fill-rule="evenodd" clip-rule="evenodd" d="M173.848 24.3907V6.14447C168.809 6.14447 164.725 10.229 164.725 15.2676C164.725 20.3061 168.809 24.3907 173.848 24.3907Z" fill="white" fill-opacity="0.12"/>
<circle cx="201.631" cy="2.41239" r="2.90281" fill="white" fill-opacity="0.12"/>
<rect x="199.558" y="6.5592" width="4.14687" height="17.4169" fill="white" fill-opacity="0.12"/>
<path fill-rule="evenodd" clip-rule="evenodd" d="M214.072 24.3907V6.14447C209.034 6.14447 204.949 10.229 204.949 15.2676C204.949 20.3061 209.034 24.3907 214.072 24.3907Z" fill="white" fill-opacity="0.12"/>
<circle cx="0.508279" cy="77.0558" r="2.90281" fill="white" fill-opacity="0.12"/>
<rect x="-1.56543" y="81.2027" width="4.14687" height="17.4169" fill="white" fill-opacity="0.12"/>
<path fill-rule="evenodd" clip-rule="evenodd" d="M12.9483 99.0345V80.7883C7.90975 80.7883 3.8252 84.8728 3.8252 89.9114C3.8252 94.9499 7.90975 99.0345 12.9483 99.0345Z" fill="white" fill-opacity="0.12"/>
<circle cx="40.7329" cy="77.0558" r="2.90281" fill="white" fill-opacity="0.12"/>
<rect x="38.6592" y="81.2027" width="4.14687" height="17.4169" fill="white" fill-opacity="0.12"/>
<path fill-rule="evenodd" clip-rule="evenodd" d="M53.1729 99.0345V80.7883C48.1344 80.7883 44.0498 84.8728 44.0498 89.9114C44.0498 94.9499 48.1344 99.0345 53.1729 99.0345Z" fill="white" fill-opacity="0.12"/>
<circle cx="80.9575" cy="77.0558" r="2.90281" fill="white" fill-opacity="0.12"/>
<rect x="78.8838" y="81.2027" width="4.14687" height="17.4169" fill="white" fill-opacity="0.12"/>
<path fill-rule="evenodd" clip-rule="evenodd" d="M93.3975 99.0345V80.7883C88.359 80.7883 84.2744 84.8728 84.2744 89.9114C84.2744 94.9499 88.359 99.0345 93.3975 99.0345Z" fill="white" fill-opacity="0.12"/>
<circle cx="121.182" cy="77.0558" r="2.90281" fill="white" fill-opacity="0.12"/>
<rect x="119.109" y="81.2027" width="4.14687" height="17.4169" fill="white" fill-opacity="0.12"/>
<path fill-rule="evenodd" clip-rule="evenodd" d="M133.623 99.0345V80.7883C128.585 80.7883 124.5 84.8728 124.5 89.9114C124.5 94.9499 128.585 99.0345 133.623 99.0345Z" fill="white" fill-opacity="0.12"/>
<circle cx="161.408" cy="77.0558" r="2.90281" fill="white" fill-opacity="0.12"/>
<rect x="159.334" y="81.2027" width="4.14687" height="17.4169" fill="white" fill-opacity="0.12"/>
<path fill-rule="evenodd" clip-rule="evenodd" d="M173.848 99.0345V80.7883C168.809 80.7883 164.725 84.8728 164.725 89.9114C164.725 94.9499 168.809 99.0345 173.848 99.0345Z" fill="white" fill-opacity="0.12"/>
<circle cx="201.631" cy="77.0558" r="2.90281" fill="white" fill-opacity="0.12"/>
<rect x="199.558" y="81.2027" width="4.14687" height="17.4169" fill="white" fill-opacity="0.12"/>
<path fill-rule="evenodd" clip-rule="evenodd" d="M214.072 99.0345V80.7883C209.034 80.7883 204.949 84.8728 204.949 89.9114C204.949 94.9499 209.034 99.0345 214.072 99.0345Z" fill="white" fill-opacity="0.12"/>
<circle cx="0.508279" cy="151.7" r="2.90281" fill="white" fill-opacity="0.12"/>
<rect x="-1.56543" y="155.847" width="4.14687" height="17.4169" fill="white" fill-opacity="0.12"/>
<path fill-rule="evenodd" clip-rule="evenodd" d="M12.9483 173.679V155.432C7.90975 155.432 3.8252 159.517 3.8252 164.555C3.8252 169.594 7.90975 173.679 12.9483 173.679Z" fill="white" fill-opacity="0.12"/>
<circle cx="40.7329" cy="151.7" r="2.90281" fill="white" fill-opacity="0.12"/>
<rect x="38.6592" y="155.847" width="4.14687" height="17.4169" fill="white" fill-opacity="0.12"/>
<path fill-rule="evenodd" clip-rule="evenodd" d="M53.1729 173.679V155.432C48.1344 155.432 44.0498 159.517 44.0498 164.555C44.0498 169.594 48.1344 173.679 53.1729 173.679Z" fill="white" fill-opacity="0.12"/>
<circle cx="80.9575" cy="151.7" r="2.90281" fill="white" fill-opacity="0.12"/>
<rect x="78.8838" y="155.847" width="4.14687" height="17.4169" fill="white" fill-opacity="0.12"/>
<path fill-rule="evenodd" clip-rule="evenodd" d="M93.3975 173.679V155.432C88.359 155.432 84.2744 159.517 84.2744 164.555C84.2744 169.594 88.359 173.679 93.3975 173.679Z" fill="white" fill-opacity="0.12"/>
<circle cx="121.182" cy="151.7" r="2.90281" fill="white" fill-opacity="0.12"/>
<rect x="119.109" y="155.847" width="4.14687" height="17.4169" fill="white" fill-opacity="0.12"/>
<path fill-rule="evenodd" clip-rule="evenodd" d="M133.623 173.679V155.432C128.585 155.432 124.5 159.517 124.5 164.555C124.5 169.594 128.585 173.679 133.623 173.679Z" fill="white" fill-opacity="0.12"/>
<circle cx="161.408" cy="151.7" r="2.90281" fill="white" fill-opacity="0.12"/>
<rect x="159.334" y="155.847" width="4.14687" height="17.4169" fill="white" fill-opacity="0.12"/>
<path fill-rule="evenodd" clip-rule="evenodd" d="M173.848 173.679V155.432C168.809 155.432 164.725 159.517 164.725 164.555C164.725 169.594 168.809 173.679 173.848 173.679Z" fill="white" fill-opacity="0.12"/>
<circle cx="201.631" cy="151.7" r="2.90281" fill="white" fill-opacity="0.12"/>
<rect x="199.558" y="155.847" width="4.14687" height="17.4169" fill="white" fill-opacity="0.12"/>
<path fill-rule="evenodd" clip-rule="evenodd" d="M214.072 173.679V155.432C209.034 155.432 204.949 159.517 204.949 164.555C204.949 169.594 209.034 173.679 214.072 173.679Z" fill="white" fill-opacity="0.12"/>
<circle cx="21.2427" cy="39.7337" r="2.90281" fill="white" fill-opacity="0.12"/>
<rect x="19.1689" y="43.8803" width="4.14687" height="17.4169" fill="white" fill-opacity="0.12"/>
<path fill-rule="evenodd" clip-rule="evenodd" d="M33.6827 61.7118V43.4655C28.6441 43.4655 24.5596 47.5501 24.5596 52.5886C24.5596 57.6272 28.6441 61.7118 33.6827 61.7118Z" fill="white" fill-opacity="0.12"/>
<circle cx="61.4673" cy="39.7337" r="2.90281" fill="white" fill-opacity="0.12"/>
<rect x="59.3945" y="43.8803" width="4.14687" height="17.4169" fill="white" fill-opacity="0.12"/>
<path fill-rule="evenodd" clip-rule="evenodd" d="M73.9083 61.7118V43.4655C68.8697 43.4655 64.7852 47.5501 64.7852 52.5886C64.7852 57.6272 68.8697 61.7118 73.9083 61.7118Z" fill="white" fill-opacity="0.12"/>
<circle cx="101.693" cy="39.7337" r="2.90281" fill="white" fill-opacity="0.12"/>
<rect x="99.6191" y="43.8803" width="4.14687" height="17.4169" fill="white" fill-opacity="0.12"/>
<path fill-rule="evenodd" clip-rule="evenodd" d="M114.133 61.7118V43.4655C109.094 43.4655 105.01 47.5501 105.01 52.5886C105.01 57.6272 109.094 61.7118 114.133 61.7118Z" fill="white" fill-opacity="0.12"/>
<circle cx="141.916" cy="39.7337" r="2.90281" fill="white" fill-opacity="0.12"/>
<rect x="139.843" y="43.8803" width="4.14687" height="17.4169" fill="white" fill-opacity="0.12"/>
<path fill-rule="evenodd" clip-rule="evenodd" d="M154.357 61.7118V43.4655C149.319 43.4655 145.234 47.5501 145.234 52.5886C145.234 57.6272 149.319 61.7118 154.357 61.7118Z" fill="white" fill-opacity="0.12"/>
<circle cx="182.141" cy="39.7337" r="2.90281" fill="white" fill-opacity="0.12"/>
<rect x="180.067" y="43.8803" width="4.14687" height="17.4169" fill="white" fill-opacity="0.12"/>
<path fill-rule="evenodd" clip-rule="evenodd" d="M194.582 61.7118V43.4655C189.544 43.4655 185.459 47.5501 185.459 52.5886C185.459 57.6272 189.544 61.7118 194.582 61.7118Z" fill="white" fill-opacity="0.12"/>
<circle cx="222.366" cy="39.7337" r="2.90281" fill="white" fill-opacity="0.12"/>
<rect x="220.293" y="43.8803" width="4.14687" height="17.4169" fill="white" fill-opacity="0.12"/>
<path fill-rule="evenodd" clip-rule="evenodd" d="M234.807 61.7118V43.4655C229.768 43.4655 225.684 47.5501 225.684 52.5886C225.684 57.6272 229.768 61.7118 234.807 61.7118Z" fill="white" fill-opacity="0.12"/>
<circle cx="21.2427" cy="114.378" r="2.90281" fill="white" fill-opacity="0.12"/>
<rect x="19.1689" y="118.524" width="4.14687" height="17.4169" fill="white" fill-opacity="0.12"/>
<path fill-rule="evenodd" clip-rule="evenodd" d="M33.6827 136.356V118.11C28.6441 118.11 24.5596 122.194 24.5596 127.233C24.5596 132.271 28.6441 136.356 33.6827 136.356Z" fill="white" fill-opacity="0.12"/>
<circle cx="61.4673" cy="114.378" r="2.90281" fill="white" fill-opacity="0.12"/>
<rect x="59.3945" y="118.524" width="4.14687" height="17.4169" fill="white" fill-opacity="0.12"/>
<path fill-rule="evenodd" clip-rule="evenodd" d="M73.9083 136.356V118.11C68.8697 118.11 64.7852 122.194 64.7852 127.233C64.7852 132.271 68.8697 136.356 73.9083 136.356Z" fill="white" fill-opacity="0.12"/>
<circle cx="101.693" cy="114.378" r="2.90281" fill="white" fill-opacity="0.12"/>
<rect x="99.6191" y="118.524" width="4.14687" height="17.4169" fill="white" fill-opacity="0.12"/>
<path fill-rule="evenodd" clip-rule="evenodd" d="M114.133 136.356V118.11C109.094 118.11 105.01 122.194 105.01 127.233C105.01 132.271 109.094 136.356 114.133 136.356Z" fill="white" fill-opacity="0.12"/>
<circle cx="141.916" cy="114.378" r="2.90281" fill="white" fill-opacity="0.12"/>
<rect x="139.843" y="118.524" width="4.14687" height="17.4169" fill="white" fill-opacity="0.12"/>
<path fill-rule="evenodd" clip-rule="evenodd" d="M154.357 136.356V118.11C149.319 118.11 145.234 122.194 145.234 127.233C145.234 132.271 149.319 136.356 154.357 136.356Z" fill="white" fill-opacity="0.12"/>
<circle cx="182.141" cy="114.378" r="2.90281" fill="white" fill-opacity="0.12"/>
<rect x="180.067" y="118.524" width="4.14687" height="17.4169" fill="white" fill-opacity="0.12"/>
<path fill-rule="evenodd" clip-rule="evenodd" d="M194.582 136.356V118.11C189.544 118.11 185.459 122.194 185.459 127.233C185.459 132.271 189.544 136.356 194.582 136.356Z" fill="white" fill-opacity="0.12"/>
<circle cx="222.366" cy="114.378" r="2.90281" fill="white" fill-opacity="0.12"/>
<rect x="220.293" y="118.524" width="4.14687" height="17.4169" fill="white" fill-opacity="0.12"/>
<path fill-rule="evenodd" clip-rule="evenodd" d="M234.807 136.356V118.11C229.768 118.11 225.684 122.194 225.684 127.233C225.684 132.271 229.768 136.356 234.807 136.356Z" fill="white" fill-opacity="0.12"/>
<circle cx="240.284" cy="2.41264" r="2.90281" fill="white" fill-opacity="0.12"/>
<rect x="238.21" y="6.55945" width="4.14687" height="17.4169" fill="white" fill-opacity="0.12"/>
<path fill-rule="evenodd" clip-rule="evenodd" d="M252.725 24.391V6.14471C247.686 6.14471 243.602 10.2293 243.602 15.2678C243.602 20.3064 247.686 24.391 252.725 24.391Z" fill="white" fill-opacity="0.12"/>
<circle cx="280.508" cy="2.41239" r="2.90281" fill="white" fill-opacity="0.12"/>
<rect x="278.435" y="6.5592" width="4.14687" height="17.4169" fill="white" fill-opacity="0.12"/>
<path fill-rule="evenodd" clip-rule="evenodd" d="M292.948 24.3907V6.14447C287.91 6.14447 283.825 10.229 283.825 15.2676C283.825 20.3061 287.91 24.3907 292.948 24.3907Z" fill="white" fill-opacity="0.12"/>
<circle cx="320.733" cy="2.41239" r="2.90281" fill="white" fill-opacity="0.12"/>
<rect x="318.659" y="6.5592" width="4.14687" height="17.4169" fill="white" fill-opacity="0.12"/>
<path fill-rule="evenodd" clip-rule="evenodd" d="M333.173 24.3907V6.14447C328.134 6.14447 324.05 10.229 324.05 15.2676C324.05 20.3061 328.134 24.3907 333.173 24.3907Z" fill="white" fill-opacity="0.12"/>
<circle cx="360.957" cy="2.41239" r="2.90281" fill="white" fill-opacity="0.12"/>
<rect x="358.884" y="6.5592" width="4.14687" height="17.4169" fill="white" fill-opacity="0.12"/>
<path fill-rule="evenodd" clip-rule="evenodd" d="M373.398 24.3907V6.14447C368.359 6.14447 364.274 10.229 364.274 15.2676C364.274 20.3061 368.359 24.3907 373.398 24.3907Z" fill="white" fill-opacity="0.12"/>
<circle cx="401.182" cy="2.41239" r="2.90281" fill="white" fill-opacity="0.12"/>
<rect x="399.109" y="6.5592" width="4.14687" height="17.4169" fill="white" fill-opacity="0.12"/>
<path fill-rule="evenodd" clip-rule="evenodd" d="M413.623 24.3907V6.14447C408.585 6.14447 404.5 10.229 404.5 15.2676C404.5 20.3061 408.585 24.3907 413.623 24.3907Z" fill="white" fill-opacity="0.12"/>
<circle cx="441.408" cy="2.41239" r="2.90281" fill="white" fill-opacity="0.12"/>
<rect x="439.334" y="6.5592" width="4.14687" height="17.4169" fill="white" fill-opacity="0.12"/>
<path fill-rule="evenodd" clip-rule="evenodd" d="M453.848 24.3907V6.14447C448.809 6.14447 444.725 10.229 444.725 15.2676C444.725 20.3061 448.809 24.3907 453.848 24.3907Z" fill="white" fill-opacity="0.12"/>
<circle cx="240.284" cy="77.0558" r="2.90281" fill="white" fill-opacity="0.12"/>
<rect x="238.21" y="81.2027" width="4.14687" height="17.4169" fill="white" fill-opacity="0.12"/>
<path fill-rule="evenodd" clip-rule="evenodd" d="M252.725 99.0345V80.7883C247.686 80.7883 243.602 84.8728 243.602 89.9114C243.602 94.9499 247.686 99.0345 252.725 99.0345Z" fill="white" fill-opacity="0.12"/>
<circle cx="280.508" cy="77.0558" r="2.90281" fill="white" fill-opacity="0.12"/>
<rect x="278.435" y="81.2027" width="4.14687" height="17.4169" fill="white" fill-opacity="0.12"/>
<path fill-rule="evenodd" clip-rule="evenodd" d="M292.948 99.0345V80.7883C287.91 80.7883 283.825 84.8728 283.825 89.9114C283.825 94.9499 287.91 99.0345 292.948 99.0345Z" fill="white" fill-opacity="0.12"/>
<circle cx="320.733" cy="77.0558" r="2.90281" fill="white" fill-opacity="0.12"/>
<rect x="318.659" y="81.2027" width="4.14687" height="17.4169" fill="white" fill-opacity="0.12"/>
<path fill-rule="evenodd" clip-rule="evenodd" d="M333.173 99.0345V80.7883C328.134 80.7883 324.05 84.8728 324.05 89.9114C324.05 94.9499 328.134 99.0345 333.173 99.0345Z" fill="white" fill-opacity="0.12"/>
<circle cx="360.957" cy="77.0558" r="2.90281" fill="white" fill-opacity="0.12"/>
<rect x="358.884" y="81.2027" width="4.14687" height="17.4169" fill="white" fill-opacity="0.12"/>
<path fill-rule="evenodd" clip-rule="evenodd" d="M373.398 99.0345V80.7883C368.359 80.7883 364.274 84.8728 364.274 89.9114C364.274 94.9499 368.359 99.0345 373.398 99.0345Z" fill="white" fill-opacity="0.12"/>
<circle cx="401.182" cy="77.0558" r="2.90281" fill="white" fill-opacity="0.12"/>
<rect x="399.109" y="81.2027" width="4.14687" height="17.4169" fill="white" fill-opacity="0.12"/>
<path fill-rule="evenodd" clip-rule="evenodd" d="M413.623 99.0345V80.7883C408.585 80.7883 404.5 84.8728 404.5 89.9114C404.5 94.9499 408.585 99.0345 413.623 99.0345Z" fill="white" fill-opacity="0.12"/>
<circle cx="441.408" cy="77.0558" r="2.90281" fill="white" fill-opacity="0.12"/>
<rect x="439.334" y="81.2027" width="4.14687" height="17.4169" fill="white" fill-opacity="0.12"/>
<path fill-rule="evenodd" clip-rule="evenodd" d="M453.848 99.0345V80.7883C448.809 80.7883 444.725 84.8728 444.725 89.9114C444.725 94.9499 448.809 99.0345 453.848 99.0345Z" fill="white" fill-opacity="0.12"/>
<circle cx="240.284" cy="151.7" r="2.90281" fill="white" fill-opacity="0.12"/>
<rect x="238.21" y="155.846" width="4.14687" height="17.4169" fill="white" fill-opacity="0.12"/>
<path fill-rule="evenodd" clip-rule="evenodd" d="M252.725 173.678V155.432C247.686 155.432 243.602 159.517 243.602 164.555C243.602 169.594 247.686 173.678 252.725 173.678Z" fill="white" fill-opacity="0.12"/>
<circle cx="280.508" cy="151.7" r="2.90281" fill="white" fill-opacity="0.12"/>
<rect x="278.435" y="155.847" width="4.14687" height="17.4169" fill="white" fill-opacity="0.12"/>
<path fill-rule="evenodd" clip-rule="evenodd" d="M292.948 173.679V155.432C287.91 155.432 283.825 159.517 283.825 164.555C283.825 169.594 287.91 173.679 292.948 173.679Z" fill="white" fill-opacity="0.12"/>
<circle cx="320.733" cy="151.7" r="2.90281" fill="white" fill-opacity="0.12"/>
<rect x="318.659" y="155.847" width="4.14687" height="17.4169" fill="white" fill-opacity="0.12"/>
<path fill-rule="evenodd" clip-rule="evenodd" d="M333.173 173.679V155.432C328.134 155.432 324.05 159.517 324.05 164.555C324.05 169.594 328.134 173.679 333.173 173.679Z" fill="white" fill-opacity="0.12"/>
<circle cx="360.957" cy="151.7" r="2.90281" fill="white" fill-opacity="0.12"/>
<rect x="358.884" y="155.847" width="4.14687" height="17.4169" fill="white" fill-opacity="0.12"/>
<path fill-rule="evenodd" clip-rule="evenodd" d="M373.398 173.679V155.432C368.359 155.432 364.274 159.517 364.274 164.555C364.274 169.594 368.359 173.679 373.398 173.679Z" fill="white" fill-opacity="0.12"/>
<circle cx="401.182" cy="151.7" r="2.90281" fill="white" fill-opacity="0.12"/>
<rect x="399.109" y="155.847" width="4.14687" height="17.4169" fill="white" fill-opacity="0.12"/>
<path fill-rule="evenodd" clip-rule="evenodd" d="M413.623 173.679V155.432C408.585 155.432 404.5 159.517 404.5 164.555C404.5 169.594 408.585 173.679 413.623 173.679Z" fill="white" fill-opacity="0.12"/>
<circle cx="441.408" cy="151.7" r="2.90281" fill="white" fill-opacity="0.12"/>
<rect x="439.334" y="155.847" width="4.14687" height="17.4169" fill="white" fill-opacity="0.12"/>
<path fill-rule="evenodd" clip-rule="evenodd" d="M453.848 173.679V155.432C448.809 155.432 444.725 159.517 444.725 164.555C444.725 169.594 448.809 173.679 453.848 173.679Z" fill="white" fill-opacity="0.12"/>
<circle cx="261.018" cy="39.7339" r="2.90281" fill="white" fill-opacity="0.12"/>
<rect x="258.944" y="43.8804" width="4.14687" height="17.4169" fill="white" fill-opacity="0.12"/>
<path fill-rule="evenodd" clip-rule="evenodd" d="M273.458 61.7119V43.4656C268.42 43.4656 264.335 47.5502 264.335 52.5888C264.335 57.6273 268.42 61.7119 273.458 61.7119Z" fill="white" fill-opacity="0.12"/>
<circle cx="301.243" cy="39.7337" r="2.90281" fill="white" fill-opacity="0.12"/>
<rect x="299.169" y="43.8803" width="4.14687" height="17.4169" fill="white" fill-opacity="0.12"/>
<path fill-rule="evenodd" clip-rule="evenodd" d="M313.683 61.7118V43.4655C308.644 43.4655 304.56 47.5501 304.56 52.5886C304.56 57.6272 308.644 61.7118 313.683 61.7118Z" fill="white" fill-opacity="0.12"/>
<circle cx="341.467" cy="39.7337" r="2.90281" fill="white" fill-opacity="0.12"/>
<rect x="339.395" y="43.8803" width="4.14687" height="17.4169" fill="white" fill-opacity="0.12"/>
<path fill-rule="evenodd" clip-rule="evenodd" d="M353.908 61.7118V43.4655C348.87 43.4655 344.785 47.5501 344.785 52.5886C344.785 57.6272 348.87 61.7118 353.908 61.7118Z" fill="white" fill-opacity="0.12"/>
<circle cx="381.693" cy="39.7337" r="2.90281" fill="white" fill-opacity="0.12"/>
<rect x="379.619" y="43.8803" width="4.14687" height="17.4169" fill="white" fill-opacity="0.12"/>
<path fill-rule="evenodd" clip-rule="evenodd" d="M394.133 61.7118V43.4655C389.094 43.4655 385.01 47.5501 385.01 52.5886C385.01 57.6272 389.094 61.7118 394.133 61.7118Z" fill="white" fill-opacity="0.12"/>
<circle cx="421.916" cy="39.7337" r="2.90281" fill="white" fill-opacity="0.12"/>
<rect x="419.843" y="43.8803" width="4.14687" height="17.4169" fill="white" fill-opacity="0.12"/>
<path fill-rule="evenodd" clip-rule="evenodd" d="M434.357 61.7118V43.4655C429.318 43.4655 425.233 47.5501 425.233 52.5886C425.233 57.6272 429.318 61.7118 434.357 61.7118Z" fill="white" fill-opacity="0.12"/>
<circle cx="462.141" cy="39.7337" r="2.90281" fill="white" fill-opacity="0.12"/>
<rect x="460.067" y="43.8803" width="4.14687" height="17.4169" fill="white" fill-opacity="0.12"/>
<path fill-rule="evenodd" clip-rule="evenodd" d="M474.582 61.7118V43.4655C469.544 43.4655 465.459 47.5501 465.459 52.5886C465.459 57.6272 469.544 61.7118 474.582 61.7118Z" fill="white" fill-opacity="0.12"/>
<circle cx="261.018" cy="114.378" r="2.90281" fill="white" fill-opacity="0.12"/>
<rect x="258.944" y="118.524" width="4.14687" height="17.4169" fill="white" fill-opacity="0.12"/>
<path fill-rule="evenodd" clip-rule="evenodd" d="M273.458 136.355V118.109C268.42 118.109 264.335 122.194 264.335 127.232C264.335 132.271 268.42 136.355 273.458 136.355Z" fill="white" fill-opacity="0.12"/>
<circle cx="301.243" cy="114.378" r="2.90281" fill="white" fill-opacity="0.12"/>
<rect x="299.169" y="118.524" width="4.14687" height="17.4169" fill="white" fill-opacity="0.12"/>
<path fill-rule="evenodd" clip-rule="evenodd" d="M313.683 136.356V118.11C308.644 118.11 304.56 122.194 304.56 127.233C304.56 132.271 308.644 136.356 313.683 136.356Z" fill="white" fill-opacity="0.12"/>
<circle cx="341.467" cy="114.378" r="2.90281" fill="white" fill-opacity="0.12"/>
<rect x="339.395" y="118.524" width="4.14687" height="17.4169" fill="white" fill-opacity="0.12"/>
<path fill-rule="evenodd" clip-rule="evenodd" d="M353.908 136.356V118.11C348.87 118.11 344.785 122.194 344.785 127.233C344.785 132.271 348.87 136.356 353.908 136.356Z" fill="white" fill-opacity="0.12"/>
<circle cx="381.693" cy="114.378" r="2.90281" fill="white" fill-opacity="0.12"/>
<rect x="379.619" y="118.524" width="4.14687" height="17.4169" fill="white" fill-opacity="0.12"/>
<path fill-rule="evenodd" clip-rule="evenodd" d="M394.133 136.356V118.11C389.094 118.11 385.01 122.194 385.01 127.233C385.01 132.271 389.094 136.356 394.133 136.356Z" fill="white" fill-opacity="0.12"/>
<circle cx="421.916" cy="114.378" r="2.90281" fill="white" fill-opacity="0.12"/>
<rect x="419.843" y="118.524" width="4.14687" height="17.4169" fill="white" fill-opacity="0.12"/>
<path fill-rule="evenodd" clip-rule="evenodd" d="M434.357 136.356V118.11C429.318 118.11 425.233 122.194 425.233 127.233C425.233 132.271 429.318 136.356 434.357 136.356Z" fill="white" fill-opacity="0.12"/>
<circle cx="462.141" cy="114.378" r="2.90281" fill="white" fill-opacity="0.12"/>
<rect x="460.067" y="118.524" width="4.14687" height="17.4169" fill="white" fill-opacity="0.12"/>
<path fill-rule="evenodd" clip-rule="evenodd" d="M474.582 136.356V118.11C469.544 118.11 465.459 122.194 465.459 127.233C465.459 132.271 469.544 136.356 474.582 136.356Z" fill="white" fill-opacity="0.12"/>
<circle cx="59.3809" cy="137" r="79" fill="#82D2A4"/>
<path d="M127.224 116.038C127.293 117.133 127.34 118.234 127.363 119.341L126.863 119.351C126.875 119.9 126.881 120.449 126.881 121C126.881 121.551 126.875 122.1 126.863 122.649L127.363 122.659C127.34 123.766 127.293 124.867 127.224 125.962L126.725 125.93C126.655 127.027 126.562 128.117 126.447 129.201L126.944 129.254C126.827 130.355 126.687 131.449 126.523 132.536L126.029 132.462C125.866 133.549 125.68 134.629 125.472 135.701L125.962 135.796C125.752 136.882 125.518 137.96 125.262 139.029L124.776 138.912C124.52 139.98 124.242 141.04 123.943 142.09L124.423 142.227C124.12 143.29 123.795 144.343 123.448 145.387L122.974 145.229C122.627 146.27 122.26 147.302 121.871 148.323L122.338 148.501C121.945 149.533 121.531 150.555 121.095 151.566L120.636 151.368C120.202 152.376 119.747 153.372 119.272 154.358L119.723 154.575C119.243 155.569 118.743 156.552 118.223 157.523L117.783 157.287C117.265 158.254 116.727 159.208 116.17 160.15L116.601 160.405C116.039 161.354 115.458 162.291 114.858 163.216L114.439 162.943C113.842 163.862 113.226 164.768 112.592 165.661L112.999 165.951C112.361 166.849 111.703 167.735 111.028 168.606L110.633 168.299C109.961 169.165 109.272 170.017 108.565 170.854L108.947 171.177C108.236 172.019 107.508 172.847 106.762 173.659L106.394 173.321C105.654 174.128 104.896 174.92 104.123 175.697L104.477 176.05C103.699 176.83 102.905 177.595 102.095 178.344L101.756 177.977C100.952 178.72 100.132 179.447 99.2974 180.158L99.6215 180.539C98.7827 181.253 97.9286 181.95 97.0599 182.631L96.7516 182.237C95.8898 182.912 95.0134 183.57 94.1229 184.211L94.4149 184.617C93.5208 185.26 92.6127 185.886 91.691 186.493L91.4157 186.076C90.5024 186.678 89.5756 187.263 88.6361 187.829L88.8941 188.257C87.9514 188.825 86.9958 189.375 86.0279 189.906L85.7874 189.467C84.8284 189.993 83.8572 190.501 82.8744 190.989L83.0969 191.437C82.1114 191.926 81.1142 192.397 80.1059 192.848L79.9018 192.391C78.9035 192.838 77.8941 193.265 76.8743 193.673L77.0598 194.137C76.0379 194.545 75.0055 194.933 73.9632 195.302L73.7967 194.83C72.7661 195.194 71.7257 195.538 70.676 195.862L70.8233 196.34C69.7731 196.663 68.7136 196.967 67.6453 197.25L67.5174 196.766C66.4615 197.046 65.397 197.305 64.3244 197.543L64.4328 198.031C63.36 198.269 62.2791 198.486 61.1905 198.683L61.1019 198.191C60.0268 198.384 58.9443 198.557 57.8546 198.709L57.9236 199.204C56.8347 199.355 55.7389 199.486 54.6366 199.595L54.5874 199.097C53.5023 199.204 52.4107 199.29 51.3132 199.355L51.3426 199.854C50.2475 199.919 49.1466 199.962 48.0402 199.984L48.0304 199.484C47.4819 199.495 46.932 199.5 46.3809 199.5C45.8297 199.5 45.2798 199.495 44.7313 199.484L44.7215 199.984C43.6151 199.962 42.5141 199.919 41.4191 199.854L41.4485 199.355C40.351 199.29 39.2594 199.204 38.1743 199.097L38.1251 199.595C37.0228 199.486 35.927 199.355 34.8381 199.204L34.907 198.709C33.8174 198.557 32.7349 198.384 31.6598 198.191L31.5712 198.683C30.4826 198.486 29.4017 198.269 28.3289 198.031L28.4373 197.543C27.3647 197.305 26.3002 197.046 25.2443 196.766L25.1164 197.25C24.0481 196.967 22.9886 196.663 21.9384 196.34L22.0857 195.862C21.036 195.538 19.9956 195.194 18.965 194.83L18.7985 195.302C17.7562 194.933 16.7238 194.545 15.7019 194.137L15.8874 193.673C14.8676 193.265 13.8582 192.838 12.8599 192.391L12.6558 192.848C11.6475 192.397 10.6503 191.926 9.66482 191.437L9.88729 190.989C8.90447 190.501 7.9333 189.993 6.9743 189.467L6.73385 189.906C5.76595 189.375 4.81036 188.825 3.86761 188.257L4.12566 187.829C3.18609 187.263 2.25935 186.678 1.34598 186.076L1.07074 186.493C0.149071 185.886 -0.759083 185.26 -1.65319 184.617L-1.36119 184.211C-2.25162 183.57 -3.12803 182.912 -3.98988 182.237L-4.29818 182.631C-5.16691 181.95 -6.02095 181.253 -6.85976 180.539L-6.53564 180.158C-7.3705 179.447 -8.19018 178.72 -8.99413 177.977L-9.33355 178.344C-10.1435 177.595 -10.9376 176.83 -11.7153 176.05L-11.3611 175.697C-12.1346 174.92 -12.8919 174.128 -13.6323 173.321L-14.0007 173.659C-14.7462 172.847 -15.4747 172.019 -16.1856 171.177L-15.8036 170.854C-16.5103 170.017 -17.1996 169.165 -17.8709 168.299L-18.266 168.606C-18.9415 167.735 -19.5989 166.849 -20.2376 165.951L-19.8301 165.661C-20.4645 164.768 -21.0804 163.862 -21.6772 162.943L-22.0965 163.216C-22.6967 162.292 -23.2777 161.354 -23.8391 160.405L-23.4087 160.15C-23.9658 159.208 -24.5033 158.254 -25.0209 157.287L-25.4617 157.523C-25.9817 156.552 -26.4816 155.569 -26.9609 154.575L-26.5105 154.358C-26.9857 153.372 -27.4405 152.375 -27.8743 151.368L-28.3336 151.566C-28.7689 150.555 -29.1833 149.533 -29.5762 148.501L-29.109 148.323C-29.4979 147.302 -29.8657 146.27 -30.2118 145.229L-30.6863 145.387C-31.0332 144.343 -31.3585 143.29 -31.6616 142.227L-31.1808 142.09C-31.4806 141.04 -31.7585 139.98 -32.0141 138.912L-32.5003 139.029C-32.7562 137.959 -32.9899 136.882 -33.2008 135.796L-32.7099 135.701C-32.9182 134.629 -33.1042 133.549 -33.2673 132.462L-33.7618 132.536C-33.9248 131.449 -34.0651 130.355 -34.1823 129.254L-33.6851 129.201C-33.8005 128.117 -33.8933 127.027 -33.963 125.93L-34.462 125.962C-34.5316 124.867 -34.5783 123.766 -34.6016 122.659L-34.1017 122.649C-34.1133 122.1 -34.1191 121.551 -34.1191 121C-34.1191 120.449 -34.1133 119.9 -34.1017 119.351L-34.6016 119.341C-34.5783 118.234 -34.5316 117.133 -34.462 116.038L-33.963 116.07C-33.8933 114.973 -33.8005 113.883 -33.6851 112.799L-34.1823 112.746C-34.0651 111.645 -33.9248 110.551 -33.7617 109.464L-33.2673 109.538C-33.1042 108.451 -32.9182 107.371 -32.7099 106.299L-33.2008 106.204C-32.9899 105.118 -32.7562 104.04 -32.5003 102.971L-32.014 103.088C-31.7585 102.02 -31.4806 100.96 -31.1808 99.9098L-31.6616 99.7726C-31.3585 98.7103 -31.0332 97.6571 -30.6863 96.6133L-30.2118 96.7711C-29.8657 95.73 -29.4979 94.6984 -29.109 93.6769L-29.5762 93.499C-29.1833 92.4671 -28.7689 91.4453 -28.3336 90.4343L-27.8743 90.6321C-27.4405 89.6245 -26.9857 88.6276 -26.5105 87.6419L-26.9609 87.4248C-26.4816 86.4306 -25.9817 85.4478 -25.4617 84.4768L-25.0209 84.7128C-24.5033 83.7464 -23.9658 82.7918 -23.4087 81.8495L-23.8391 81.5951C-23.2777 80.6456 -22.6967 79.7085 -22.0965 78.7844L-21.6772 79.0568C-21.0804 78.1378 -20.4645 77.2317 -19.8301 76.339L-20.2376 76.0493C-19.5989 75.1506 -18.9415 74.2653 -18.266 73.3942L-17.8709 73.7006C-17.1996 72.8348 -16.5103 71.983 -15.8036 71.1457L-16.1856 70.8232C-15.4747 69.9809 -14.7462 69.1532 -14.0007 68.3406L-13.6323 68.6786C-12.8919 67.8716 -12.1346 67.0797 -11.3611 66.3033L-11.7153 65.9504C-10.9376 65.1698 -10.1435 64.4049 -9.33356 63.6561L-8.99414 64.0232C-8.19019 63.2799 -7.37051 62.5527 -6.53565 61.842L-6.85977 61.4612C-6.02096 60.7471 -5.16692 60.0496 -4.29819 59.3693L-3.98989 59.7629C-3.12804 59.0879 -2.25163 58.4298 -1.3612 57.7892L-1.6532 57.3833C-0.75909 56.7401 0.149063 56.1144 1.07073 55.5066L1.34597 55.9241C2.25935 55.3218 3.18608 54.7373 4.12565 54.1712L3.8676 53.7429C4.81036 53.1749 5.76595 52.6251 6.73386 52.0943L6.97431 52.5326C7.93331 52.0066 8.90448 51.4992 9.88729 51.011L9.66483 50.5632C10.6503 50.0735 11.6475 49.603 12.6558 49.1521L12.8599 49.6085C13.8583 49.162 14.8676 48.7348 15.8874 48.3275L15.7019 47.8632C16.7238 47.455 17.7562 47.0666 18.7985 46.6985L18.965 47.1699C19.9956 46.8059 21.036 46.4619 22.0857 46.1382L21.9384 45.6604C22.9887 45.3366 24.0482 45.0331 25.1164 44.7504L25.2443 45.2338C26.3002 44.9543 27.3647 44.6953 28.4373 44.4572L28.329 43.9691C29.4018 43.7309 30.4827 43.5136 31.5712 43.3174L31.6599 43.8095C32.7349 43.6158 33.8175 43.4429 34.9071 43.2913L34.8382 42.796C35.927 42.6445 37.0228 42.5141 38.1252 42.4053L38.1743 42.9029C39.2595 42.7957 40.351 42.7096 41.4485 42.6449L41.4191 42.1458C42.5142 42.0813 43.6151 42.0379 44.7215 42.0162L44.7313 42.5162C45.2798 42.5054 45.8297 42.5 46.3809 42.5C46.932 42.5 47.4819 42.5054 48.0304 42.5162L48.0402 42.0162C49.1466 42.0379 50.2476 42.0813 51.3427 42.1458L51.3132 42.6449C52.4107 42.7096 53.5023 42.7957 54.5875 42.9029L54.6366 42.4053C55.7389 42.5141 56.8348 42.6445 57.9236 42.796L57.8547 43.2913C58.9443 43.4429 60.0268 43.6158 61.1019 43.8095L61.1906 43.3174C62.2791 43.5136 63.36 43.7309 64.4328 43.9691L64.3244 44.4572C65.3971 44.6953 66.4616 44.9543 67.5174 45.2338L67.6453 44.7504C68.7136 45.0331 69.7731 45.3366 70.8233 45.6604L70.676 46.1382C71.7257 46.4619 72.7661 46.8059 73.7967 47.1699L73.9632 46.6985C75.0055 47.0666 76.0379 47.455 77.0598 47.8632L76.8743 48.3275C77.8941 48.7349 78.9035 49.162 79.9018 49.6085L80.106 49.1521C81.1142 49.603 82.1114 50.0735 83.0969 50.5632L82.8744 51.011C83.8572 51.4992 84.8284 52.0066 85.7874 52.5326L86.0279 52.0943C86.9958 52.6252 87.9514 53.1749 88.8941 53.7429L88.6361 54.1712C89.5756 54.7373 90.5024 55.3218 91.4157 55.924L91.691 55.5066C92.6126 56.1144 93.5208 56.7401 94.4149 57.3833L94.1229 57.7892C95.0133 58.4298 95.8897 59.0879 96.7516 59.7629L97.0599 59.3692C97.9286 60.0496 98.7827 60.7471 99.6215 61.4612L99.2974 61.842C100.132 62.5527 100.952 63.2799 101.756 64.0232L102.095 63.656C102.905 64.4048 103.699 65.1698 104.477 65.9503L104.123 66.3032C104.896 67.0797 105.654 67.8716 106.394 68.6786L106.762 68.3406C107.508 69.1532 108.236 69.9809 108.947 70.8232L108.565 71.1457C109.272 71.983 109.961 72.8348 110.633 73.7006L111.028 73.3942C111.703 74.2653 112.361 75.1505 112.999 76.0493L112.592 76.339C113.226 77.2316 113.842 78.1377 114.439 79.0567L114.858 78.7844C115.458 79.7085 116.039 80.6456 116.601 81.5951L116.17 81.8495C116.727 82.7918 117.265 83.7464 117.783 84.7128L118.223 84.4768C118.743 85.4478 119.243 86.4306 119.723 87.4248L119.272 87.6419C119.747 88.6276 120.202 89.6245 120.636 90.6321L121.095 90.4343C121.531 91.4454 121.945 92.4671 122.338 93.499L121.871 93.6769C122.26 94.6984 122.627 95.73 122.974 96.7711L123.448 96.6134C123.795 97.6571 124.12 98.7104 124.423 99.7726L123.943 99.9098C124.242 100.96 124.52 102.02 124.776 103.088L125.262 102.971C125.518 104.041 125.752 105.118 125.962 106.204L125.472 106.299C125.68 107.371 125.866 108.451 126.029 109.538L126.523 109.464C126.687 110.551 126.827 111.645 126.944 112.746L126.447 112.799C126.562 113.883 126.655 114.973 126.725 116.07L127.224 116.038Z" stroke="white" stroke-dasharray="3.3 3.3"/>
</g>
<g clip-path="url(#clip0)">
<path d="M93.4391 69.7808L91.8603 68.553L92.8246 59.1684L88.483 55.792C87.8278 55.2824 87.7102 54.3422 88.2197 53.687C88.7293 53.0318 89.6695 52.9143 90.3247 53.4238L94.6663 56.8002L103.524 53.5546L105.103 54.7824L98.2185 59.5628L102.56 62.9392L104.972 62.2813L106.156 63.2021L103.218 65.3511L101.859 68.7278L100.675 67.807L100.718 65.3074L96.3768 61.9309L93.4391 69.7808Z" fill="white"/>
</g>
<defs>
<clipPath id="clip0">
<rect width="24" height="24" fill="white" transform="matrix(-0.613897 0.789386 0.789386 0.613897 93.7012 43.3813)"/>
</clipPath>
</defs>
</svg>
