<svg width="29" height="29" viewBox="0 0 29 29" fill="none" xmlns="http://www.w3.org/2000/svg">
<g clip-path="url(#clip0)">
<path d="M0 0H28.928V15.6551L27.4961 17.8979L28.928 19.894V29H0V14.2421L0.894911 13.2104L0 12.2235V0Z" fill="#016FD0"/>
<path d="M5.61523 20.2082V15.6553H10.424L10.94 16.3295L11.4729 15.6553H28.9277V19.8943C28.9277 19.8943 28.4712 20.2037 27.9433 20.2082H18.2782L17.6965 19.4905V20.2082H15.7904V18.9831C15.7904 18.9831 15.53 19.1541 14.9671 19.1541H14.3182V20.2082H11.4322L10.917 19.5195L10.3939 20.2082H5.61523Z" fill="white"/>
<path d="M0 12.2239L1.0844 9.68945H2.95976L3.57517 11.1091V9.68945H5.90641L6.27276 10.7156L6.62793 9.68945H17.0928V10.2053C17.0928 10.2053 17.6429 9.68945 18.547 9.68945L21.9425 9.70135L22.5473 11.1024V9.68945H24.4982L25.0351 10.4943V9.68945H27.0039V14.2424H25.0351L24.5206 13.435V14.2424H21.6542L21.366 13.5247H20.5954L20.3119 14.2424H18.368C17.5901 14.2424 17.0928 13.7371 17.0928 13.7371V14.2424H14.162L13.5803 13.5247V14.2424H2.68194L2.39389 13.5247H1.62578L1.33977 14.2424H0V12.2239Z" fill="white"/>
<path d="M1.46848 10.25L0.00585938 13.6591H0.9581L1.22797 12.9765H2.79686L3.06534 13.6591H4.03855L2.57733 10.25H1.46848ZM2.00962 11.0434L2.48784 12.2363H1.53L2.00962 11.0434Z" fill="#016FD0"/>
<path d="M4.13867 13.6591V10.25L5.49186 10.255L6.27892 12.453L7.04713 10.25H8.3895V13.6591H7.53933V11.1471L6.63814 13.6591H5.89254L4.98884 11.1471V13.6591H4.13867Z" fill="#016FD0"/>
<path d="M8.97168 13.6591V10.25H11.7459V11.0126H9.83079V11.5957H11.7012V12.3134H9.83079V12.919H11.7459V13.6591H8.97168Z" fill="#016FD0"/>
<path d="M12.2383 10.25V13.6591H13.0884V12.448H13.4464L14.4658 13.6591H15.5047L14.3861 12.4031C14.8452 12.3643 15.3187 11.9693 15.3187 11.356C15.3187 10.6386 14.757 10.25 14.1302 10.25H12.2383ZM13.0884 11.0126H14.0603C14.2934 11.0126 14.463 11.1954 14.463 11.3714C14.463 11.5979 14.2432 11.7303 14.0728 11.7303H13.0884V11.0126Z" fill="#016FD0"/>
<path d="M16.5331 13.6591H15.665V10.25H16.5331V13.6591Z" fill="#016FD0"/>
<path d="M18.5917 13.6591H18.4043C17.4977 13.6591 16.9473 12.9431 16.9473 11.9686C16.9473 10.97 17.4915 10.25 18.6364 10.25H19.5761V11.0574H18.6021C18.1373 11.0574 17.8086 11.421 17.8086 11.977C17.8086 12.6372 18.1845 12.9145 18.7259 12.9145H18.9496L18.5917 13.6591Z" fill="#016FD0"/>
<path d="M20.4411 10.25L18.9785 13.6591H19.9308L20.2006 12.9765H21.7695L22.038 13.6591H23.0112L21.55 10.25H20.4411ZM20.9823 11.0434L21.4605 12.2363H20.5027L20.9823 11.0434Z" fill="#016FD0"/>
<path d="M23.1113 13.6591V10.25H24.1922L25.5723 12.3919V10.25H26.4225V13.6591H25.3766L23.9615 11.4611V13.6591H23.1113Z" fill="#016FD0"/>
<path d="M6.19727 19.6249V16.2158H8.97149V16.9784H7.05638V17.5615H8.92674V18.2792H7.05638V18.8848H8.97149V19.6249H6.19727Z" fill="#016FD0"/>
<path d="M19.791 19.6249V16.2158H22.5652V16.9784H20.6501V17.5615H22.5115V18.2792H20.6501V18.8848H22.5652V19.6249H19.791Z" fill="#016FD0"/>
<path d="M9.07904 19.6249L10.4298 17.9414L9.04688 16.2158H10.118L10.9416 17.2826L11.768 16.2158H12.7971L11.4324 17.9204L12.7856 19.6249H11.7147L10.915 18.575L10.1348 19.6249H9.07904Z" fill="#016FD0"/>
<path d="M12.8867 16.2158V19.6249H13.7593V18.5484H14.6542C15.4114 18.5484 15.9853 18.1457 15.9853 17.3625C15.9853 16.7137 15.5352 16.2158 14.7646 16.2158H12.8867ZM13.7593 16.9868H14.7017C14.9463 16.9868 15.1212 17.1371 15.1212 17.3793C15.1212 17.6068 14.9472 17.7718 14.6989 17.7718H13.7593V16.9868Z" fill="#016FD0"/>
<path d="M16.3545 16.2158V19.6249H17.2047V18.4138H17.5626L18.582 19.6249H19.6209L18.5023 18.369C18.9614 18.3301 19.4349 17.9351 19.4349 17.3218C19.4349 16.6044 18.8733 16.2158 18.2464 16.2158H16.3545ZM17.2047 16.9784H18.1765C18.4096 16.9784 18.5792 17.1612 18.5792 17.3372C18.5792 17.5637 18.3595 17.6961 18.1891 17.6961H17.2047V16.9784Z" fill="#016FD0"/>
<path d="M22.9585 19.6249V18.8848H24.66C24.9117 18.8848 25.0207 18.7484 25.0207 18.5988C25.0207 18.4555 24.9121 18.3106 24.66 18.3106H23.8911C23.2228 18.3106 22.8506 17.9024 22.8506 17.2896C22.8506 16.743 23.1914 16.2158 24.1846 16.2158H25.8402L25.4822 16.9829H24.0503C23.7766 16.9829 23.6924 17.1269 23.6924 17.2644C23.6924 17.4057 23.7965 17.5615 24.0056 17.5615H24.811C25.556 17.5615 25.8793 17.9852 25.8793 18.54C25.8793 19.1364 25.5191 19.6249 24.7704 19.6249H22.9585Z" fill="#016FD0"/>
<path d="M26.0796 19.6249V18.8848H27.7811C28.0328 18.8848 28.1418 18.7484 28.1418 18.5988C28.1418 18.4555 28.0332 18.3106 27.7811 18.3106H27.0122C26.3439 18.3106 25.9717 17.9024 25.9717 17.2896C25.9717 16.743 26.3125 16.2158 27.3057 16.2158H28.9612L28.6033 16.9829H27.1714C26.8977 16.9829 26.8135 17.1269 26.8135 17.2644C26.8135 17.4057 26.9176 17.5615 27.1267 17.5615H27.9321C28.6771 17.5615 29.0004 17.9852 29.0004 18.54C29.0004 19.1364 28.6401 19.6249 27.8915 19.6249H26.0796Z" fill="#016FD0"/>
</g>
<defs>
<clipPath id="clip0">
<rect width="29" height="29" fill="white"/>
</clipPath>
</defs>
</svg>
