<svg width="18" height="18" viewBox="0 0 18 18" fill="none" xmlns="http://www.w3.org/2000/svg">
<path d="M14.8359 7.41797V6.36328H1.05469V9C1.05469 11.4434 2.34383 13.6217 4.27352 14.8359H11.5819C12.0559 14.5377 12.5252 14.1822 12.9122 13.7812H14.3086C16.3438 13.7812 18 12.1251 18 10.0898V7.41797H14.8359ZM16.9453 10.0898C16.9453 11.5437 15.7624 12.7266 14.3086 12.7266H13.7346C14.4242 11.6596 14.8359 10.3628 14.8359 9V8.47266H16.9453V10.0898Z" fill="#0EB155"/>
<path d="M5.62744 0L5.0424 0.877535C5.252 1.01711 5.37199 1.24161 5.37199 1.49347C5.37199 1.74533 5.252 1.96984 5.0424 2.10941C4.54185 2.44311 4.24316 3.00136 4.24316 3.60285C4.24316 4.20434 4.54185 4.76258 5.0424 5.09628L5.6274 4.21875C5.4178 4.07918 5.29781 3.85467 5.29781 3.60281C5.29781 3.35095 5.4178 3.12645 5.6274 2.98688C6.12799 2.65321 6.42668 2.09496 6.42668 1.49344C6.42668 0.891949 6.12799 0.333703 5.62744 0Z" fill="#0EB155"/>
<path d="M8.26416 0L7.67913 0.877535C7.88873 1.01711 8.00871 1.24161 8.00871 1.49347C8.00871 1.74533 7.88873 1.96984 7.67913 2.10941C7.17857 2.44311 6.87988 3.00136 6.87988 3.60285C6.87988 4.20434 7.17857 4.76258 7.67913 5.09628L8.26412 4.21875C8.05452 4.07918 7.93454 3.85467 7.93454 3.60281C7.93454 3.35095 8.05452 3.12645 8.26412 2.98688C8.76471 2.65321 9.0634 2.09496 9.0634 1.49344C9.0634 0.891949 8.76471 0.333703 8.26416 0Z" fill="#0EB155"/>
<path d="M10.9009 0L10.3158 0.877535C10.5254 1.01711 10.6454 1.24161 10.6454 1.49347C10.6454 1.74533 10.5254 1.96984 10.3158 2.10941C9.81529 2.44311 9.5166 3.00136 9.5166 3.60285C9.5166 4.20434 9.81529 4.76258 10.3158 5.09628L10.9008 4.21875C10.6912 4.07918 10.5713 3.85467 10.5713 3.60281C10.5713 3.35095 10.6912 3.12645 10.9008 2.98688C11.4014 2.65321 11.7001 2.09496 11.7001 1.49344C11.7001 0.891949 11.4014 0.333703 10.9009 0Z" fill="#0EB155"/>
<path d="M0 15.8906C0 17.0556 0.944402 18 2.10938 18H13.7812C14.9462 18 15.8906 17.0556 15.8906 15.8906H0Z" fill="#0EB155"/>
</svg>
