<svg width="18" height="18" viewBox="0 0 18 18" fill="none" xmlns="http://www.w3.org/2000/svg">
<path d="M7.875 3.375C7.875 1.51088 6.61613 0 5.0625 0C3.50887 0 2.25 1.51088 2.25 3.375C2.25 4.98488 3.1905 6.32587 4.44712 6.66337L3.38625 16.1224C3.37837 16.1842 3.375 16.2484 3.375 16.3125C3.375 17.244 4.131 18 5.0625 18C5.994 18 6.75 17.244 6.75 16.3125C6.75 16.2585 6.74775 16.2045 6.74213 16.1516L5.83987 6.60262C7.01213 6.1965 7.875 4.91288 7.875 3.375Z" fill="#0EB155"/>
<path d="M15.1875 0C14.877 0 14.625 0.252 14.625 0.5625V3.375C14.625 3.6855 14.373 3.9375 14.0625 3.9375C13.752 3.9375 13.5 3.6855 13.5 3.375V0.5625C13.5 0.252 13.248 0 12.9375 0C12.627 0 12.375 0.252 12.375 0.5625V3.375C12.375 3.6855 12.123 3.9375 11.8125 3.9375C11.502 3.9375 11.25 3.6855 11.25 3.375V0.5625C11.25 0.252 10.998 0 10.6875 0C10.377 0 10.125 0.252 10.125 0.5625V3.9375C10.125 5.27513 11.0655 6.3945 12.3199 6.67688L11.2601 16.1224C11.2534 16.1842 11.25 16.2484 11.25 16.3125C11.25 17.244 12.006 18 12.9375 18C13.869 18 14.625 17.244 14.625 16.3125C14.625 16.2585 14.6227 16.2045 14.6171 16.1516L13.7171 6.62625C14.8871 6.28537 15.75 5.2155 15.75 3.9375V0.5625C15.75 0.252 15.498 0 15.1875 0Z" fill="#0EB155"/>
</svg>
