<svg width="37" height="29" viewBox="0 0 37 29" fill="none" xmlns="http://www.w3.org/2000/svg">
<g clip-path="url(#clip0)">
<path d="M21.6482 28.9426C29.6494 28.9805 36.9524 22.4914 36.9524 14.5976C36.9518 5.96424 29.6488 -0.00287025 21.6482 1.03576e-06H14.7617C6.66465 -0.00287025 0 5.96654 0 14.5976C0 22.4937 6.66465 28.9805 14.7617 28.9426H21.6482Z" fill="#0079BE"/>
<path d="M14.7945 1.19629C7.39569 1.19859 1.40018 7.12837 1.39844 14.4456C1.40018 21.7616 7.39569 27.6908 14.7945 27.6937C22.1945 27.6914 28.1918 21.7627 28.1929 14.4456C28.1918 7.1278 22.1945 1.19859 14.7945 1.19629ZM6.30254 14.4456C6.30951 10.8697 8.56784 7.82035 11.7538 6.60867V22.2813C8.56842 21.0696 6.30951 18.0226 6.30254 14.4461V14.4456ZM17.8324 22.2842V6.60809C21.0189 7.8169 23.2807 10.8679 23.2865 14.4456C23.2807 18.0243 21.0183 21.0725 17.8324 22.2842Z" fill="white"/>
</g>
<defs>
<clipPath id="clip0">
<rect width="37" height="29" fill="white"/>
</clipPath>
</defs>
</svg>
