<svg width="18" height="18" viewBox="0 0 18 18" fill="none" xmlns="http://www.w3.org/2000/svg">
<path d="M12.1311 4.43048V2.4353C12.1311 2.12262 11.8776 1.86914 11.565 1.86914H6.43419C6.12151 1.86914 5.86803 2.12262 5.86803 2.4353V4.43048H4.2627V16.1311H13.7364V4.43048H12.1311ZM10.9988 4.42598H7.00034V3.00145H10.9988V4.42598H10.9988Z" fill="#C4C4C4"/>
<path d="M1.92448 4.43018C0.86333 4.43018 0 5.29347 0 6.35463V14.2063C0 15.2674 0.86333 16.1308 1.92448 16.1308H3.1308V4.43018H1.92448Z" fill="#C4C4C4"/>
<path d="M16.0755 4.43018H14.8691V16.1308H16.0755C17.1366 16.1308 17.9999 15.2675 17.9999 14.2063V6.35462C17.9999 5.29347 17.1366 4.43018 16.0755 4.43018Z" fill="#C4C4C4"/>
</svg>
