<svg width="18" height="18" viewBox="0 0 18 18" fill="none" xmlns="http://www.w3.org/2000/svg">
<path d="M12.9375 2.25H11.8125V1.125C12.1231 1.125 12.375 0.873141 12.375 0.5625C12.375 0.251859 12.1231 0 11.8125 0C11.0099 0 6.99202 0 6.1875 0C5.87686 0 5.625 0.251859 5.625 0.5625C5.625 0.873141 5.87686 1.125 6.1875 1.125V2.25H5.0625C3.82184 2.25 2.8125 3.25934 2.8125 4.5V14.625C2.8125 15.8657 3.82184 16.875 5.0625 16.875H5.34375V17.4375C5.34375 17.7481 5.59561 18 5.90625 18C6.21689 18 6.46875 17.7481 6.46875 17.4375V16.875H11.5312V17.4375C11.5312 17.7481 11.7831 18 12.0938 18C12.4044 18 12.6562 17.7481 12.6562 17.4375V16.875H12.9375C14.1782 16.875 15.1875 15.8657 15.1875 14.625V4.5C15.1875 3.25934 14.1782 2.25 12.9375 2.25ZM7.3125 1.125H10.6875V2.25H7.3125V1.125ZM6.75 13.7812C6.75 14.092 6.49828 14.3438 6.1875 14.3438C5.87672 14.3438 5.625 14.092 5.625 13.7812V5.34375C5.625 5.03297 5.87672 4.78125 6.1875 4.78125C6.49828 4.78125 6.75 5.03297 6.75 5.34375V13.7812ZM9.5625 13.7812C9.5625 14.092 9.31078 14.3438 9 14.3438C8.68922 14.3438 8.4375 14.092 8.4375 13.7812V5.34375C8.4375 5.03297 8.68922 4.78125 9 4.78125C9.31078 4.78125 9.5625 5.03297 9.5625 5.34375V13.7812ZM11.25 13.7812V5.34375C11.25 5.03297 11.5017 4.78125 11.8125 4.78125C12.1233 4.78125 12.375 5.03297 12.375 5.34375V13.7812C12.375 14.092 12.1233 14.3438 11.8125 14.3438C11.5017 14.3438 11.25 14.092 11.25 13.7812Z" fill="#C4C4C4"/>
</svg>
