<svg width="26" height="36" viewBox="0 0 26 36" fill="none" xmlns="http://www.w3.org/2000/svg">
<path d="M20.875 4.5H18.625V2.25C19.2463 2.25 19.75 1.74628 19.75 1.125C19.75 0.503719 19.2463 0 18.625 0C17.0198 0 8.98403 0 7.375 0C6.75372 0 6.25 0.503719 6.25 1.125C6.25 1.74628 6.75372 2.25 7.375 2.25V4.5H5.125C2.64367 4.5 0.625 6.51867 0.625 9V29.25C0.625 31.7313 2.64367 33.75 5.125 33.75H5.6875V34.875C5.6875 35.4963 6.19122 36 6.8125 36C7.43378 36 7.9375 35.4963 7.9375 34.875V33.75H18.0625V34.875C18.0625 35.4963 18.5662 36 19.1875 36C19.8088 36 20.3125 35.4963 20.3125 34.875V33.75H20.875C23.3563 33.75 25.375 31.7313 25.375 29.25V9C25.375 6.51867 23.3563 4.5 20.875 4.5ZM9.625 2.25H16.375V4.5H9.625V2.25ZM23.125 29.25C23.125 30.4907 22.1157 31.5 20.875 31.5H5.125C3.88434 31.5 2.875 30.4907 2.875 29.25V9C2.875 7.75934 3.88434 6.75 5.125 6.75H20.875C22.1157 6.75 23.125 7.75934 23.125 9V29.25Z" fill="#2E2C2D"/>
<path d="M13 9.5625C12.3787 9.5625 11.875 10.0662 11.875 10.6875V27.5625C11.875 28.1838 12.3787 28.6875 13 28.6875C13.6213 28.6875 14.125 28.1838 14.125 27.5625V10.6875C14.125 10.0662 13.6213 9.5625 13 9.5625Z" fill="#2E2C2D"/>
<path d="M18.625 9.5625C18.0037 9.5625 17.5 10.0662 17.5 10.6875V27.5625C17.5 28.1838 18.0037 28.6875 18.625 28.6875C19.2463 28.6875 19.75 28.1838 19.75 27.5625V10.6875C19.75 10.0662 19.2463 9.5625 18.625 9.5625Z" fill="#2E2C2D"/>
<path d="M7.375 9.5625C6.75372 9.5625 6.25 10.0662 6.25 10.6875V27.5625C6.25 28.1838 6.75372 28.6875 7.375 28.6875C7.99628 28.6875 8.5 28.1838 8.5 27.5625V10.6875C8.5 10.0662 7.99628 9.5625 7.375 9.5625Z" fill="#2E2C2D"/>
</svg>
