<svg width="41" height="33" viewBox="0 0 41 33" fill="none" xmlns="http://www.w3.org/2000/svg">
<path d="M7.43046 31.9604V29.8982C7.44695 29.7217 7.42364 29.5437 7.36221 29.3771C7.30077 29.2105 7.20273 29.0594 7.07513 28.9346C6.94753 28.8099 6.79352 28.7145 6.62416 28.6554C6.45479 28.5963 6.27428 28.5749 6.09555 28.5928C5.86411 28.5836 5.63407 28.6324 5.4269 28.7346C5.21972 28.8368 5.04216 28.9892 4.91077 29.1774C4.79679 28.9886 4.63248 28.8342 4.43573 28.7311C4.23898 28.628 4.01735 28.5802 3.79496 28.5928C3.60469 28.5849 3.41551 28.6249 3.24517 28.7089C3.07484 28.793 2.92893 28.9184 2.82116 29.0733V28.6729H2.09082V31.9725H2.84957V30.1385C2.84957 29.5538 3.16199 29.2816 3.66106 29.2816C4.16013 29.2816 4.39141 29.5899 4.39141 30.1385V31.9604H5.12176V30.1385C5.10721 30.0273 5.1177 29.9144 5.15251 29.8078C5.18731 29.7011 5.24556 29.6033 5.32309 29.5215C5.40061 29.4396 5.49551 29.3756 5.60099 29.3342C5.70647 29.2927 5.81993 29.2747 5.93326 29.2816C6.42016 29.2816 6.6636 29.5899 6.6636 30.1385V31.9604H7.43046ZM18.268 28.6609H17.0832V27.6638H16.3529V28.6609H15.6915V29.3136H16.3529V30.8352C16.3529 31.5921 16.6653 32.0365 17.5011 32.0365C17.8181 32.0303 18.1287 31.9478 18.406 31.7963L18.199 31.1796C18.0119 31.2953 17.7949 31.3551 17.5742 31.3518C17.2252 31.3518 17.0873 31.1476 17.0873 30.8032V29.3136H18.268V28.6609ZM24.4638 28.5928C24.2888 28.5893 24.116 28.6319 23.9634 28.7164C23.8107 28.8009 23.6837 28.9241 23.5955 29.0733V28.6729H22.8651V31.9725H23.5955V30.1024C23.5955 29.5538 23.8389 29.2455 24.2934 29.2455C24.447 29.2511 24.5994 29.274 24.7478 29.3136L24.9547 28.6248C24.7942 28.5958 24.631 28.5837 24.4678 28.5888L24.4638 28.5928ZM15.0991 28.9372C14.6912 28.6907 14.2176 28.5708 13.7399 28.5928C12.904 28.5928 12.3481 28.9932 12.3481 29.658C12.3481 30.2066 12.7539 30.5149 13.4964 30.619L13.8453 30.655C14.2268 30.7231 14.4377 30.8272 14.4377 30.9994C14.4377 31.2397 14.1578 31.3998 13.6709 31.3998C13.2717 31.4021 12.8818 31.2817 12.5551 31.0555L12.1818 31.6161C12.6048 31.8914 13.1035 32.0312 13.61 32.0165C14.5838 32.0165 15.1397 31.568 15.1397 30.9514C15.1397 30.3347 14.6852 30.0584 13.9914 29.9543L13.6425 29.9182C13.33 29.8822 13.0866 29.8141 13.0866 29.6099C13.0866 29.4057 13.33 29.2335 13.7115 29.2335C14.0752 29.2498 14.4311 29.3441 14.7542 29.5098L15.0666 28.9252L15.0991 28.9372ZM34.4979 28.5928C34.3229 28.5893 34.1502 28.6319 33.9975 28.7164C33.8448 28.8009 33.7178 28.9241 33.6296 29.0733V28.6729H32.8993V31.9725H33.6296V30.1024C33.6296 29.5538 33.8731 29.2455 34.3275 29.2455C34.4811 29.2511 34.6336 29.274 34.782 29.3136L34.9889 28.6248C34.8284 28.5958 34.6651 28.5837 34.502 28.5888L34.4979 28.5928ZM25.1657 30.3107C25.1542 30.5441 25.193 30.7773 25.2796 30.9949C25.3663 31.2124 25.4988 31.4093 25.6683 31.5724C25.8379 31.7356 26.0407 31.8614 26.2632 31.9414C26.4857 32.0214 26.7229 32.0538 26.9591 32.0365C27.3877 32.0602 27.8099 31.9261 28.1439 31.6601L27.795 31.0755C27.5489 31.2716 27.243 31.3802 26.9267 31.3838C26.7871 31.3872 26.6484 31.3614 26.5196 31.3082C26.3909 31.2549 26.275 31.1754 26.1796 31.0748C26.0841 30.9742 26.0114 30.8548 25.966 30.7245C25.9206 30.5942 25.9037 30.4559 25.9164 30.3187C25.9064 30.1814 25.9249 30.0435 25.9708 29.9135C26.0166 29.7835 26.0888 29.664 26.183 29.5625C26.2772 29.4609 26.3913 29.3794 26.5185 29.3228C26.6456 29.2663 26.7832 29.2359 26.9226 29.2335C27.2389 29.2371 27.5448 29.3457 27.7909 29.5418L28.1399 28.9572C27.8058 28.6912 27.3836 28.5571 26.9551 28.5808C26.7189 28.564 26.4817 28.597 26.2594 28.6775C26.0371 28.758 25.8346 28.8842 25.6654 29.0478C25.4962 29.2114 25.3642 29.4085 25.2781 29.6262C25.1919 29.8439 25.1536 30.0772 25.1657 30.3107ZM31.9174 30.3107V28.6609H31.187V29.0613C31.0645 28.9051 30.906 28.78 30.7246 28.6965C30.5432 28.6129 30.3443 28.5732 30.1443 28.5808C29.6826 28.5808 29.2399 28.7618 28.9134 29.0839C28.587 29.4061 28.4036 29.843 28.4036 30.2987C28.4036 30.7543 28.587 31.1912 28.9134 31.5134C29.2399 31.8355 29.6826 32.0165 30.1443 32.0165C30.3453 32.0316 30.5468 31.9954 30.7295 31.9112C30.9121 31.827 31.0697 31.6978 31.187 31.536V31.9364H31.9174V30.3107ZM29.2354 30.3107C29.2354 30.0452 29.3423 29.7905 29.5325 29.6028C29.7227 29.4151 29.9807 29.3096 30.2498 29.3096C30.5188 29.3096 30.7768 29.4151 30.967 29.6028C31.1572 29.7905 31.2641 30.0452 31.2641 30.3107C31.2641 30.5762 31.1572 30.8308 30.967 31.0185C30.7768 31.2063 30.5188 31.3117 30.2498 31.3117C29.9807 31.3117 29.7227 31.2063 29.5325 31.0185C29.3423 30.8308 29.2354 30.5762 29.2354 30.3107ZM20.5199 28.5928C20.0583 28.5976 19.6174 28.7832 19.2944 29.1087C18.9714 29.4342 18.7927 29.8731 18.7975 30.3287C18.8023 30.7843 18.9904 31.2193 19.3202 31.5381C19.6501 31.8569 20.0948 32.0333 20.5564 32.0285C21.0498 32.0394 21.5317 31.8809 21.9197 31.58L21.5708 31.0635C21.2915 31.2775 20.9504 31.3981 20.597 31.4079C20.3567 31.4275 20.118 31.3553 19.93 31.2063C19.742 31.0573 19.6191 30.8428 19.5867 30.607H22.0577V30.3307C22.0942 29.2655 21.4653 28.5768 20.528 28.5768L20.5199 28.5928ZM20.5199 29.2095C20.6285 29.2063 20.7367 29.2246 20.8379 29.2634C20.9392 29.3022 21.0316 29.3607 21.1095 29.4354C21.1875 29.5101 21.2494 29.5994 21.2917 29.6982C21.334 29.797 21.3558 29.9031 21.3557 30.0103H19.6151C19.6327 29.7877 19.7365 29.5802 19.905 29.4311C20.0735 29.282 20.2937 29.2026 20.5199 29.2095ZM38.6528 30.3107V27.3555H37.9225V29.0733C37.7999 28.9171 37.6414 28.792 37.46 28.7085C37.2787 28.6249 37.0797 28.5852 36.8797 28.5928C36.418 28.5928 35.9753 28.7738 35.6488 29.096C35.3224 29.4181 35.139 29.8551 35.139 30.3107C35.139 30.7663 35.3224 31.2032 35.6488 31.5254C35.9753 31.8475 36.418 32.0285 36.8797 32.0285C37.0807 32.0436 37.2822 32.0074 37.4649 31.9232C37.6476 31.839 37.8052 31.7098 37.9225 31.548V31.9484H38.6528V30.3107ZM35.9708 30.3107C35.9708 30.0452 36.0777 29.7905 36.2679 29.6028C36.4581 29.4151 36.7161 29.3096 36.9852 29.3096C37.2542 29.3096 37.5122 29.4151 37.7024 29.6028C37.8927 29.7905 37.9995 30.0452 37.9995 30.3107C37.9995 30.5762 37.8927 30.8308 37.7024 31.0185C37.5122 31.2063 37.2542 31.3117 36.9852 31.3117C36.7161 31.3117 36.4581 31.2063 36.2679 31.0185C36.0777 30.8308 35.9708 30.5762 35.9708 30.3107ZM11.5366 30.3107V28.6609H10.8063V29.0613C10.6809 28.905 10.5191 28.7809 10.3348 28.6993C10.1505 28.6178 9.94896 28.5812 9.74729 28.5928C9.28456 28.5928 8.84079 28.7742 8.51359 29.0971C8.18639 29.42 8.00257 29.858 8.00257 30.3147C8.00257 30.7713 8.18639 31.2093 8.51359 31.5322C8.84079 31.8551 9.28456 32.0365 9.74729 32.0365C9.9483 32.0517 10.1499 32.0154 10.3325 31.9312C10.5152 31.847 10.6728 31.7178 10.7901 31.556V31.9564H11.5204L11.5366 30.3107ZM8.82218 30.3107C8.82218 30.0452 8.92906 29.7905 9.11929 29.6028C9.30952 29.4151 9.56753 29.3096 9.83655 29.3096C10.1056 29.3096 10.3636 29.4151 10.5538 29.6028C10.7441 29.7905 10.8509 30.0452 10.8509 30.3107C10.8509 30.5762 10.7441 30.8308 10.5538 31.0185C10.3636 31.2063 10.1056 31.3117 9.83655 31.3117C9.56753 31.3117 9.30952 31.2063 9.11929 31.0185C8.92906 30.8308 8.82218 30.5762 8.82218 30.3107Z" fill="#010101"/>
<path d="M25.811 3.61816H14.8477V23.0592H25.811V3.61816Z" fill="#EB621D"/>
<path d="M15.5419 13.3403C15.5398 11.4689 15.9664 9.62128 16.7899 7.93556C17.6134 6.24984 18.8124 4.76969 20.2973 3.6058C18.449 2.17161 16.2292 1.27959 13.8915 1.03171C11.5538 0.783824 9.19254 1.19008 7.07774 2.20404C4.96295 3.21801 3.17991 4.79875 1.93245 6.76558C0.684983 8.73241 0.0234375 11.006 0.0234375 13.3263C0.0234375 15.6467 0.684983 17.9202 1.93245 19.887C3.17991 21.8539 4.96295 23.4346 7.07774 24.4486C9.19254 25.4625 11.5538 25.8688 13.8915 25.6209C16.2292 25.373 18.449 24.481 20.2973 23.0468C18.8126 21.889 17.6133 20.414 16.7896 18.7328C15.9659 17.0515 15.5393 15.2078 15.5419 13.3403Z" fill="#E41522"/>
<path d="M40.5842 13.3411C40.5871 15.661 39.928 17.9349 38.6824 19.9023C37.4367 21.8698 35.6549 23.4513 33.5409 24.4658C31.4269 25.4803 29.0661 25.8869 26.7289 25.6389C24.3916 25.3909 22.1724 24.4985 20.3252 23.0636C21.8082 21.9012 23.0061 20.4233 23.8295 18.7402C24.6528 17.0571 25.0805 15.2122 25.0805 13.3431C25.0805 11.4741 24.6528 9.62921 23.8295 7.94608C23.0061 6.26295 21.8082 4.78504 20.3252 3.62262C22.1721 2.18802 24.391 1.29558 26.7279 1.04745C29.0648 0.799323 31.4252 1.20553 33.5391 2.21958C35.6529 3.23363 37.4348 4.81455 38.6808 6.7814C39.9267 8.74825 40.5863 11.0216 40.5842 13.3411Z" fill="#F59E1F"/>
</svg>
