<svg width="18" height="18" viewBox="0 0 18 18" fill="none" xmlns="http://www.w3.org/2000/svg">
<path d="M14.2734 3.23438H12.6914V0.527344C12.6914 0.236109 12.4553 0 12.1641 0C11.8728 0 11.6367 0.236109 11.6367 0.527344V3.23438H6.36328V0.527344C6.36328 0.236109 6.12717 0 5.83594 0C5.5447 0 5.30859 0.236109 5.30859 0.527344V3.23438H3.72656C3.43547 3.23438 3.19922 3.47062 3.19922 3.76172V5.87109C3.19922 6.16219 3.43547 6.39844 3.72656 6.39844H4.25391V9.03516C4.25391 11.4831 6.11648 13.5039 8.49902 13.7549H8.49909C8.75018 16.1373 10.7709 18 13.2188 18C13.51 18 13.7461 17.7639 13.7461 17.4727C13.7461 17.1814 13.51 16.9453 13.2188 16.9453C11.3509 16.9453 9.80286 15.5508 9.56053 13.7482H9.56074C11.9145 13.4701 13.7461 11.4623 13.7461 9.03516V6.39844H14.2734C14.5645 6.39844 14.8008 6.16219 14.8008 5.87109V3.76172C14.8008 3.47062 14.5645 3.23438 14.2734 3.23438ZM10.4277 9.40816L9.37301 10.4629C8.88398 10.9519 8.13305 10.2111 8.62699 9.71684L9.16453 9.17965L7.70941 8.45227C7.38809 8.29125 7.31812 7.86199 7.5723 7.60746L8.62699 6.55277C9.11988 6.05988 9.8666 6.80484 9.37301 7.29879L8.83547 7.83598L10.2906 8.56336C10.6119 8.72437 10.6819 9.15363 10.4277 9.40816Z" fill="#0EB155"/>
</svg>
