<svg width="50" height="50" viewBox="0 0 50 50" fill="none" xmlns="http://www.w3.org/2000/svg">
<path d="M49.7462 9.99463C49.561 9.79092 49.2986 9.6748 49.0234 9.6748H45.8966C45.745 9.6748 45.5955 9.71006 45.4598 9.77793C44.5551 10.2304 44.0333 11.4095 43.8178 13.4887C43.7246 14.3886 43.7135 15.239 43.7161 15.6988C42.3788 17.5625 41.5792 20.5042 41.1064 23.1181H34.9331C34.3938 23.1181 33.9566 23.5554 33.9566 24.0947C33.9566 24.6339 34.3938 25.0713 34.9331 25.0713H40.7997C40.6943 25.8525 40.6186 26.5579 40.5658 27.1333H29.9582C28.2943 27.1333 26.9407 28.4869 26.9407 30.1507V32.3454C26.9407 33.2685 27.6917 34.0194 28.6148 34.0194H31.6007V34.2237C31.6007 34.6667 31.8959 35.0403 32.3002 35.1599L31.4892 38.3723H15.4817L14.6729 35.1689C15.0951 35.0612 15.4078 34.6795 15.4078 34.2237V34.0194H17.0566C18.3394 34.0194 19.4431 33.1046 19.681 31.844L22.4172 17.3469C22.4226 17.3178 22.4268 17.2885 22.4296 17.2592L23.055 10.7449C23.0813 10.4709 22.9907 10.1985 22.8057 9.99483C22.6205 9.79111 22.3581 9.675 22.0829 9.675H18.956C18.8044 9.675 18.655 9.71025 18.5193 9.77813C17.6145 10.2306 17.0927 11.4097 16.8773 13.4889C16.784 14.3888 16.7729 15.2392 16.7756 15.699C15.4383 17.5626 14.6388 20.5044 14.166 23.1183H7.99271C7.45335 23.1183 7.01614 23.5556 7.01614 24.0949C7.01614 24.6341 7.45335 25.0714 7.99271 25.0714H13.8592C13.7539 25.8527 13.6782 26.5581 13.6253 27.1335H3.01749C1.35362 27.133 0 28.4866 0 30.1505V32.3452C0 33.2683 0.75098 34.0192 1.67403 34.0192H4.65998V34.2235C4.65998 34.6665 4.95519 35.0401 5.35949 35.1597L4.54846 38.3721H0.976566V38.372C0.437209 38.372 0 38.8093 0 39.3486C0 39.8878 0.437209 40.3251 0.976566 40.3251H5.3091H14.7211H32.2497H41.6617H47.3598C47.8991 40.3251 48.3363 39.8878 48.3363 39.3486C48.3363 38.8093 47.8991 38.372 47.3598 38.372H42.4223L41.6135 35.1687C42.0357 35.0609 42.3484 34.6792 42.3484 34.2235V34.0192H43.9972C45.2801 34.0192 46.3838 33.1044 46.6217 31.8438L47.0393 29.6309C47.1393 29.101 46.7908 28.5903 46.2608 28.4902C45.7311 28.3902 45.2202 28.7386 45.1201 29.2687L44.7024 31.4816C44.6386 31.8203 44.342 32.0661 43.9972 32.0661H42.3217C42.1683 31.0649 41.3039 30.2948 40.2605 30.2948H33.6884C32.645 30.2948 31.7805 31.0649 31.6272 32.0661H28.8938V30.1505C28.8938 29.5636 29.3712 29.0862 29.9581 29.0862H40.9677C41.7493 29.0862 42.4123 28.4765 42.477 27.6982C42.5469 26.8565 42.6456 25.9682 42.7734 25.0711H44.1249C44.6642 25.0711 45.1014 24.6338 45.1014 24.0945C45.1014 23.5552 44.6642 23.1179 44.1249 23.1179H43.0986C43.6082 20.4653 44.3857 17.9728 45.4606 16.6291C45.6059 16.4475 45.6817 16.2195 45.6741 15.9869C45.6738 15.9765 45.6414 14.9312 45.7494 13.8023C45.8828 12.4084 46.1308 11.8396 46.2624 11.6278H47.9487L47.4303 17.0281L46.4466 22.2397C46.3466 22.7697 46.6951 23.2803 47.2251 23.3804C47.7549 23.4805 48.2658 23.132 48.3658 22.6019L49.3577 17.3467C49.3632 17.3176 49.3674 17.2883 49.3701 17.259L49.9955 10.7447C50.0219 10.4707 49.9312 10.1983 49.7462 9.99463ZM4.68664 32.0659H1.95313V30.1505C1.95313 29.5636 2.43058 29.0862 3.01749 29.0862H14.0272C14.8087 29.0862 15.4717 28.4765 15.5364 27.6983C15.6064 26.8565 15.705 25.9682 15.8328 25.0711H17.1841C17.7235 25.0711 18.1607 24.6338 18.1607 24.0945C18.1607 23.5552 17.7235 23.1179 17.1841 23.1179H16.158C16.6675 20.4652 17.4451 17.9727 18.5199 16.6291C18.6652 16.4475 18.741 16.2195 18.7334 15.9869C18.7331 15.9765 18.7007 14.9313 18.8087 13.8023C18.9421 12.4084 19.1901 11.8396 19.3217 11.6278H21.008L20.4895 17.0281L17.7618 31.4815C17.6979 31.8202 17.4013 32.066 17.0566 32.066H15.3811C15.2277 31.0648 14.3631 30.2947 13.3199 30.2947H6.74788C5.70451 30.2947 4.83996 31.0648 4.68664 32.0659ZM13.4547 32.3826V33.2468H6.61311V32.3826C6.61311 32.3082 6.67356 32.2477 6.74788 32.2477H13.32C13.3943 32.2477 13.4547 32.3082 13.4547 32.3826ZM6.56292 38.3719L7.3637 35.2H12.6665L13.4673 38.3719H6.56292ZM33.5537 32.3828C33.5537 32.3084 33.6142 32.2479 33.6885 32.2479H40.2606C40.3349 32.2479 40.3954 32.3084 40.3954 32.3828V33.247H33.5537V32.3828ZM34.3044 35.2H39.6073L40.4082 38.3719H33.5035L34.3044 35.2Z" fill="#2E2C2D"/>
<path d="M47.71 25.6919C47.6973 25.6303 47.6787 25.5688 47.6543 25.5092C47.6299 25.4508 47.5996 25.3941 47.5645 25.3414C47.5293 25.2877 47.4883 25.2378 47.4434 25.1928C47.3984 25.1469 47.3486 25.1069 47.2949 25.0708C47.2422 25.0357 47.1856 25.0053 47.126 24.9809C47.0674 24.9565 47.0059 24.9381 46.9434 24.9254C46.8174 24.8999 46.6875 24.8999 46.5615 24.9254C46.5 24.9381 46.4385 24.9565 46.3789 24.9809C46.3203 25.0053 46.2637 25.0357 46.2109 25.0708C46.1572 25.1069 46.1074 25.1469 46.0625 25.1928C46.0176 25.2378 45.9766 25.2877 45.9404 25.3414C45.9053 25.3941 45.875 25.4508 45.8506 25.5093C45.8262 25.5689 45.8076 25.6304 45.7949 25.692C45.7822 25.7554 45.7764 25.8199 45.7764 25.8834C45.7764 25.9468 45.7822 26.0113 45.7949 26.0738C45.8076 26.1363 45.8262 26.1978 45.8506 26.2564C45.875 26.315 45.9053 26.3725 45.9404 26.4253C45.9766 26.479 46.0176 26.5289 46.0625 26.5738C46.1074 26.6187 46.1572 26.6597 46.2109 26.6948C46.2637 26.7299 46.3203 26.7603 46.3789 26.7847C46.4385 26.8091 46.5 26.8276 46.5615 26.8403C46.625 26.853 46.6895 26.8598 46.7529 26.8598C47.0098 26.8598 47.2617 26.7553 47.4434 26.5737C47.4883 26.5288 47.5293 26.4789 47.5645 26.4252C47.5996 26.3724 47.6299 26.3148 47.6543 26.2563C47.6787 26.1976 47.6973 26.1362 47.71 26.0737C47.7227 26.0111 47.7295 25.9467 47.7295 25.8833C47.7295 25.8198 47.7227 25.7554 47.71 25.6919Z" fill="#2E2C2D"/>
</svg>
