<svg width="18" height="18" viewBox="0 0 18 18" fill="none" xmlns="http://www.w3.org/2000/svg">
<path d="M8.63622 3.91292C8.20679 3.66367 7.69359 3.66284 7.26334 3.91058C6.83185 4.15915 6.57422 4.60533 6.57422 5.10397V8.60696C6.57422 9.10574 6.83185 9.55179 7.26347 9.80035C7.47784 9.92381 7.71281 9.98561 7.94792 9.98561C8.1844 9.98561 8.42088 9.92313 8.63622 9.79802L11.6546 8.04666C12.0837 7.79768 12.3398 7.35233 12.3398 6.85547C12.3398 6.35861 12.0837 5.91325 11.6546 5.66428L8.63622 3.91292ZM7.98047 8.55272V5.15822L10.9054 6.85547L7.98047 8.55272ZM16.5938 7.34766V2.8125C16.5938 2.03714 15.9629 1.40625 15.1875 1.40625H2.8125C2.03714 1.40625 1.40625 2.03714 1.40625 2.8125V10.8984C1.40625 11.6738 2.03714 12.3047 2.8125 12.3047H15.1875C15.9629 12.3047 16.5938 11.6738 16.5938 10.8984C16.5938 10.5101 16.9085 10.1953 17.2969 10.1953C17.6852 10.1953 18 10.5101 18 10.8984C18 12.4493 16.7384 13.7109 15.1875 13.7109H2.8125C1.26164 13.7109 0 12.4493 0 10.8984V2.8125C0 1.26164 1.26164 0 2.8125 0H15.1875C16.7384 0 18 1.26164 18 2.8125V7.34766C18 7.73602 17.6852 8.05078 17.2969 8.05078C16.9085 8.05078 16.5938 7.73602 16.5938 7.34766ZM18 16.5586C18 16.947 17.6852 17.2617 17.2969 17.2617H8.26172C7.87335 17.2617 7.55859 16.947 7.55859 16.5586C7.55859 16.1702 7.87335 15.8555 8.26172 15.8555H17.2969C17.6852 15.8555 18 16.1702 18 16.5586ZM6.15234 16.5938C6.15234 17.3703 5.52269 18 4.74609 18C4.2112 18 3.7462 17.7013 3.50835 17.2617H0.703125C0.314758 17.2617 0 16.947 0 16.5586C0 16.1702 0.314758 15.8555 0.703125 15.8555H3.54927C3.79701 15.4547 4.24031 15.1875 4.74609 15.1875C5.52269 15.1875 6.15234 15.8172 6.15234 16.5938Z" fill="#FF0000"/>
</svg>
