<svg width="50" height="17" viewBox="0 0 50 17" fill="none" xmlns="http://www.w3.org/2000/svg">
<path d="M21.6081 15.9917H17.6602L20.1271 1.01953H24.0791L21.6081 15.9917Z" fill="#005CA9"/>
<path d="M14.3372 1.01953L10.5718 11.3187L10.1255 9.10027L8.79872 2.36899C8.79872 2.36899 8.63642 1.01953 6.92417 1.01953H0.699988L0.626953 1.2718C2.08397 1.6309 3.47687 2.20749 4.75747 2.98165L8.1901 15.9917H12.3044L18.5773 1.01953H14.3372Z" fill="#005CA9"/>
<path d="M45.4018 15.992H49.0089L45.8481 1.02382H42.6711C42.2865 0.994656 41.9026 1.08725 41.5749 1.28816C41.2473 1.48907 40.9932 1.78782 40.8493 2.14102L34.9619 15.996H39.0762L39.8877 13.7736H44.9514L45.4018 15.992ZM41.0563 10.6943L43.1296 5.08821L44.2982 10.6943H41.0563Z" fill="#005CA9"/>
<path d="M35.2863 4.61886L35.8502 1.4154C34.7095 1.01307 33.511 0.79274 32.2999 0.762695C30.3402 0.762695 25.6862 1.60761 25.6862 5.72005C25.6822 9.57622 31.1557 9.62027 31.1557 11.6545C31.1557 13.6887 26.2462 13.3203 24.6313 12.0229L24.043 15.3825C25.4554 15.966 26.9752 16.2537 28.5062 16.2274C31.2004 16.2274 35.266 14.8499 35.266 11.1019C35.266 7.20966 29.7559 6.84927 29.7559 5.15544C29.7559 3.46161 33.5902 3.70187 35.2863 4.61886Z" fill="#005CA9"/>
<path d="M10.1296 9.10027L8.79872 2.36899C8.79872 2.36899 8.63642 1.01953 6.92417 1.01953H0.699988L0.626953 1.2718C2.7709 1.81007 4.77116 2.80052 6.49002 4.17494C8.12371 5.46971 9.3797 7.16941 10.1296 9.10027Z" fill="#F7A823"/>
</svg>
