<svg width="18" height="18" viewBox="0 0 18 18" fill="none" xmlns="http://www.w3.org/2000/svg">
<g clip-path="url(#clip0)">
<path d="M3.37614 6.81674C1.93295 6.81674 0.758789 5.64258 0.758789 4.19939C0.758789 2.7562 1.93295 1.58203 3.37614 1.58203C4.81934 1.58203 5.9935 2.7562 5.9935 4.19939C5.9935 5.64258 4.81934 6.81674 3.37614 6.81674Z" fill="#908C8E"/>
<path d="M3.37614 16.4095C3.156 16.4095 2.95866 16.2739 2.87983 16.0683L0.0351967 8.64661C-0.0274254 8.48318 -0.00559005 8.29944 0.0935615 8.15524C0.192713 8.01105 0.356547 7.9248 0.531504 7.9248H6.22064C6.39559 7.9248 6.55943 8.01105 6.65858 8.15524C6.75773 8.29944 6.77957 8.48318 6.71694 8.64661L3.87245 16.0683C3.79362 16.2739 3.59628 16.4095 3.37614 16.4095Z" fill="#908C8E"/>
<path d="M14.6242 6.81674C13.181 6.81674 12.0068 5.64258 12.0068 4.19939C12.0068 2.7562 13.181 1.58203 14.6242 1.58203C16.0674 1.58203 17.2415 2.7562 17.2415 4.19939C17.2415 5.64258 16.0674 6.81674 14.6242 6.81674Z" fill="#908C8E"/>
<path d="M17.4687 16.4095H11.7795C11.6046 16.4095 11.4408 16.3234 11.3416 16.1792C11.2425 16.035 11.2206 15.8513 11.2832 15.6879L14.1277 8.26607C14.2066 8.06049 14.4039 7.9248 14.624 7.9248C14.8443 7.9248 15.0417 8.06049 15.1203 8.26607L17.965 15.6879C18.0276 15.8513 18.0058 16.035 17.9066 16.1792C17.8075 16.3234 17.6436 16.4095 17.4687 16.4095Z" fill="#908C8E"/>
<path d="M9.00021 16.4091C8.70674 16.4091 8.46875 16.1712 8.46875 15.8777V2.11349C8.46875 1.82002 8.70674 1.58203 9.00021 1.58203C9.29368 1.58203 9.53166 1.82002 9.53166 2.11349V15.8777C9.53166 16.1712 9.29381 16.4091 9.00021 16.4091Z" fill="#908C8E"/>
</g>
<defs>
<clipPath id="clip0">
<rect width="18" height="18" fill="white"/>
</clipPath>
</defs>
</svg>
