<svg width="18" height="18" viewBox="0 0 18 18" fill="none" xmlns="http://www.w3.org/2000/svg">
<g clip-path="url(#clip0)">
<path d="M9.04231 15.7731C10.2037 15.7731 11.1452 14.8316 11.1452 13.6702C11.1452 12.5089 10.2037 11.5674 9.04231 11.5674C7.88094 11.5674 6.93945 12.5089 6.93945 13.6702C6.93945 14.8316 7.88094 15.7731 9.04231 15.7731Z" fill="#F2994A"/>
<path d="M14.0686 8.60359C14.0374 8.57152 14.0045 8.54292 13.9724 8.51345L13.8779 8.42417C13.8623 8.4077 13.845 8.39556 13.8251 8.37996C11.1059 5.90957 6.94441 6.00752 4.3492 8.60273L4.04495 8.90784L3.62369 9.32911C3.11054 9.84225 3.11314 10.6787 3.62716 11.1927C4.14204 11.7085 4.9785 11.7093 5.49078 11.1962L6.21716 10.4698C7.86755 8.82029 10.552 8.82029 12.2016 10.469L12.726 10.9769C13.2339 11.4848 14.0626 11.484 14.5731 10.9726C14.8202 10.7264 14.9563 10.3979 14.9571 10.0486C14.958 9.70096 14.8236 9.37245 14.5766 9.12714L14.0686 8.60359Z" fill="#F2994A"/>
<path d="M17.6508 6.00429L17.2139 5.56743C17.2122 5.56569 17.2113 5.56309 17.2079 5.56222L16.8629 5.2155C16.8022 5.15569 16.7363 5.10369 16.667 5.05861C12.235 1.16754 5.4939 1.28716 1.20323 5.41487C1.18243 5.43394 1.15903 5.44694 1.13822 5.46774L0.349435 6.2574C-0.118637 6.72461 -0.116037 7.48479 0.354636 7.95546C0.824443 8.42527 1.58463 8.42874 2.0527 7.9598L2.84149 7.17188C2.84669 7.16494 2.85102 7.15887 2.85623 7.15454C6.32603 3.80262 11.8302 3.78181 15.3278 7.08606L15.9484 7.70756C16.4156 8.17476 17.1775 8.17303 17.6473 7.70322C18.1163 7.23255 18.118 6.4715 17.6508 6.00429Z" fill="#F2994A"/>
</g>
<defs>
<clipPath id="clip0">
<rect width="18" height="18" fill="white"/>
</clipPath>
</defs>
</svg>
