<svg width="80" height="85" viewBox="0 0 80 85" fill="none" xmlns="http://www.w3.org/2000/svg">
<g clip-path="url(#clip0)">
<path d="M62.1759 30.8759C61.5513 29.1883 59.6854 28.1777 57.9152 28.6269L55.4412 27.1183C54.5068 26.5526 53.3777 26.4419 52.3441 26.8135L43.2936 30.1069L35.8618 19.6052C35.6749 19.3414 35.332 19.235 35.0294 19.345L30.9829 20.8184C30.6091 20.9543 30.4172 21.3661 30.5531 21.7392L34.7276 33.2226L25.7288 36.4973L20.8952 31.0908C20.7004 30.8723 20.3907 30.7933 20.1139 30.8946L17.4122 31.8779C17.0384 32.013 16.8465 32.4263 16.9823 32.7986L20.9146 43.6043C21.0181 43.8889 21.2884 44.0772 21.5895 44.0772H21.5989L36.8292 43.8903C36.9097 43.8896 36.9909 43.8745 37.0664 43.8465L38.4155 43.3541L42.3492 54.1613C42.4548 54.4531 42.7309 54.6349 43.0241 54.6349C43.1053 54.6349 43.1887 54.6205 43.2699 54.5911L47.3229 53.1155C47.6277 53.0048 47.8203 52.7036 47.793 52.3809L46.7903 40.3081L60.0297 35.4867C61.4435 34.9721 62.393 33.6122 62.393 32.1021C62.3937 31.6939 62.3218 31.2834 62.1759 30.8759ZM32.1494 21.9239L35.0057 20.8839L41.8942 30.6157L36.0781 32.7317L32.1494 21.9239ZM20.5445 38.384L18.5787 32.9833L20.1484 32.4126L24.2748 37.027L20.5445 38.384ZM43.4546 52.9947L38.5377 39.4865L45.0826 37.1046L46.316 51.954L43.4546 52.9947ZM59.5388 34.1376L46.6674 38.8246L46.4367 36.048C46.4188 35.8245 46.2973 35.6225 46.1083 35.5018C45.9192 35.381 45.6842 35.3566 45.475 35.4314L37.3704 38.3811C37.1914 38.4465 37.0455 38.5802 36.965 38.7527C36.8845 38.9259 36.8759 39.1236 36.9413 39.3025L37.9246 42.0036L36.6898 42.4543L22.0912 42.6339L21.0375 39.7352L52.8336 28.1655C53.4553 27.9413 54.1353 28.0081 54.6952 28.3466L55.3837 28.7664L53.2735 29.5347L53.7651 30.886L56.9549 29.7252L57.4415 30.022C57.6262 30.1356 57.8541 30.1579 58.056 30.086C59.2003 29.6785 60.4301 30.2973 60.8254 31.3675C60.9123 31.6119 60.9569 31.8592 60.9569 32.1035C60.9562 33.0113 60.3862 33.8285 59.5388 34.1376Z" fill="#2E2C2D"/>
<path d="M48.5544 31.252L49.9046 30.7608L50.3961 32.1116L49.0459 32.6029L48.5544 31.252Z" fill="#2E2C2D"/>
<path d="M45.8523 32.2356L47.2025 31.7444L47.694 33.0953L46.3438 33.5865L45.8523 32.2356Z" fill="#2E2C2D"/>
<path d="M43.1509 33.2204L44.5011 32.7292L44.9926 34.08L43.6424 34.5713L43.1509 33.2204Z" fill="#2E2C2D"/>
<path d="M40.4487 34.204L41.7989 33.7128L42.2904 35.0636L40.9402 35.5549L40.4487 34.204Z" fill="#2E2C2D"/>
<path d="M37.7466 35.1883L39.0968 34.6971L39.5883 36.048L38.2381 36.5392L37.7466 35.1883Z" fill="#2E2C2D"/>
<path d="M35.0444 36.1726L36.3946 35.6814L36.8861 37.0323L35.5359 37.5235L35.0444 36.1726Z" fill="#2E2C2D"/>
<path d="M32.342 37.1562L33.6922 36.665L34.1837 38.0159L32.8335 38.5071L32.342 37.1562Z" fill="#2E2C2D"/>
<path d="M29.634 38.149L30.9849 37.6575L31.4764 39.0083L30.1255 39.4998L29.634 38.149Z" fill="#2E2C2D"/>
<path d="M26.9312 39.1326L28.282 38.6411L28.7735 39.9919L27.4226 40.4834L26.9312 39.1326Z" fill="#2E2C2D"/>
<path d="M30.323 50.625H34.7677C35.0653 51.4595 35.8559 52.0625 36.7918 52.0625C37.9806 52.0625 38.948 51.0951 38.948 49.9063C38.948 48.7174 37.9806 47.75 36.7918 47.75C35.8559 47.75 35.0653 48.353 34.7677 49.1875H30.323C27.9447 49.1875 26.0105 51.1217 26.0105 53.5C26.0105 55.8783 27.9447 57.8125 30.323 57.8125H42.5418V56.375H30.323C28.7374 56.375 27.448 55.0856 27.448 53.5C27.448 51.9144 28.7374 50.625 30.323 50.625ZM36.7918 49.1875C37.1885 49.1875 37.5105 49.5102 37.5105 49.9063C37.5105 50.3023 37.1885 50.625 36.7918 50.625C36.395 50.625 36.073 50.3023 36.073 49.9063C36.073 49.5102 36.395 49.1875 36.7918 49.1875Z" fill="#2E2C2D"/>
<path d="M43.9792 56.375H45.4167V57.8125H43.9792V56.375Z" fill="#2E2C2D"/>
<path d="M52.9636 56.375H46.8542V57.8125H52.9636C53.9548 57.8125 54.7605 58.6189 54.7605 59.6094C54.7605 60.5998 53.9548 61.4062 52.9636 61.4062H30.323V62.8438H52.9636C54.7468 62.8438 56.198 61.3926 56.198 59.6094C56.198 57.8262 54.7468 56.375 52.9636 56.375Z" fill="#2E2C2D"/>
<path d="M20.2605 59.9688C19.0717 59.9688 18.1042 60.9362 18.1042 62.125C18.1042 63.3138 19.0717 64.2812 20.2605 64.2812C21.1963 64.2812 21.9869 63.6782 22.2845 62.8438H28.8855V61.4062H22.2845C21.9869 60.5718 21.1963 59.9688 20.2605 59.9688ZM20.2605 62.8438C19.8637 62.8438 19.5417 62.521 19.5417 62.125C19.5417 61.729 19.8637 61.4062 20.2605 61.4062C20.6572 61.4062 20.9792 61.729 20.9792 62.125C20.9792 62.521 20.6572 62.8438 20.2605 62.8438Z" fill="#2E2C2D"/>
</g>
<circle cx="40" cy="44.8739" r="39.5" stroke="#0EB155"/>
<circle cx="61.3335" cy="10.8739" r="8" fill="#0EB155" stroke="white" stroke-width="4"/>
<defs>
<clipPath id="clip0">
<rect width="46" height="46" fill="white" transform="translate(16.6667 19)"/>
</clipPath>
</defs>
</svg>
