<svg width="38" height="38" viewBox="0 0 38 38" fill="none" xmlns="http://www.w3.org/2000/svg">
<path fill-rule="evenodd" clip-rule="evenodd" d="M37.585 18.6816C37.585 8.38477 29.2665 0.0361328 19.0068 0.0361328C8.74704 0.0361328 0.428467 8.38477 0.428467 18.6816C0.428467 27.9872 7.22132 35.7013 16.1042 37.1016V24.0726H11.3858V18.6816H16.1042V14.5728C16.1042 9.90023 18.8787 7.3175 23.1216 7.3175C25.1542 7.3175 27.2809 7.68195 27.2809 7.68195V12.2706H24.9373C22.6305 12.2706 21.9093 13.7075 21.9093 15.1837V18.6814H27.0613L26.2383 24.0724H21.9092V37.1015C30.792 35.7037 37.5849 27.9897 37.5849 18.6814L37.585 18.6816Z" fill="#1977F3"/>
<path fill-rule="evenodd" clip-rule="evenodd" d="M26.2386 24.0724L27.0616 18.6814H21.9096V15.1837C21.9096 13.7101 22.628 12.2706 24.9376 12.2706H27.2811V7.68196C27.2811 7.68196 25.1546 7.3175 23.1218 7.3175C18.879 7.3175 16.1044 9.89765 16.1044 14.5728V18.6816H11.386V24.0726H16.1044V37.1016C17.0501 37.2509 18.0194 37.327 19.007 37.327C19.9946 37.327 20.9638 37.2483 21.9096 37.1016V24.0726H26.2387L26.2386 24.0724Z" fill="#FEFEFE"/>
</svg>
