<svg width="32" height="36" viewBox="0 0 32 36" fill="none" xmlns="http://www.w3.org/2000/svg">
<path d="M16 0C7.27668 0 0.179688 7.09699 0.179688 15.8203C0.179688 16.787 0.179688 24.2654 0.179688 24.3984C0.179688 26.1431 1.59909 27.5625 3.34375 27.5625H4.57984C5.01522 28.79 6.18754 29.6719 7.5625 29.6719C9.30716 29.6719 10.7266 28.2525 10.7266 26.5078V17.9297C10.7266 16.185 9.30716 14.7656 7.5625 14.7656C6.18754 14.7656 5.01522 15.6475 4.57984 16.875H3.34375C2.97398 16.875 2.61918 16.9393 2.28906 17.0564V15.8203C2.28906 8.2601 8.43979 2.10938 16 2.10938C23.5602 2.10938 29.7109 8.2601 29.7109 15.8203V17.0564C29.3808 16.9393 29.026 16.875 28.6562 16.875H27.4202C26.9848 15.6475 25.8125 14.7656 24.4375 14.7656C22.6928 14.7656 21.2734 16.185 21.2734 17.9297V26.5078C21.2734 28.2525 22.6928 29.6719 24.4375 29.6719C24.7568 29.6719 25.065 29.6239 25.3559 29.5355C24.9613 30.8336 23.7535 31.7812 22.3281 31.7812H18.9827C18.5473 30.5537 17.375 29.6719 16 29.6719C14.2553 29.6719 12.8359 31.0913 12.8359 32.8359C12.8359 34.5806 14.2553 36 16 36C17.375 36 18.5473 35.1181 18.9827 33.8906H22.3281C25.2359 33.8906 27.6016 31.525 27.6016 28.6172V27.5625H28.6562C30.4009 27.5625 31.8203 26.1431 31.8203 24.3984C31.8203 24.2674 31.8203 16.7863 31.8203 15.8203C31.8203 7.09699 24.7233 0 16 0ZM6.50781 17.9297C6.50781 17.3481 6.98095 16.875 7.5625 16.875C8.14405 16.875 8.61719 17.3481 8.61719 17.9297V26.5078C8.61719 27.0894 8.14405 27.5625 7.5625 27.5625C6.98095 27.5625 6.50781 27.0894 6.50781 26.5078V17.9297ZM3.34375 18.9844H4.39844V25.4531H3.34375C2.7622 25.4531 2.28906 24.98 2.28906 24.3984V20.0391C2.28906 19.4575 2.7622 18.9844 3.34375 18.9844ZM16 33.8906C15.4184 33.8906 14.9453 33.4175 14.9453 32.8359C14.9453 32.2544 15.4184 31.7812 16 31.7812C16.5816 31.7812 17.0547 32.2544 17.0547 32.8359C17.0547 33.4175 16.5816 33.8906 16 33.8906ZM25.4922 26.5078C25.4922 27.0894 25.0191 27.5625 24.4375 27.5625C23.8559 27.5625 23.3828 27.0894 23.3828 26.5078V17.9297C23.3828 17.3481 23.8559 16.875 24.4375 16.875C25.0191 16.875 25.4922 17.3481 25.4922 17.9297V26.5078ZM29.7109 24.3984C29.7109 24.98 29.2378 25.4531 28.6562 25.4531H27.6016V18.9844H28.6562C29.2378 18.9844 29.7109 19.4575 29.7109 20.0391V24.3984Z" fill="#908C8E"/>
</svg>
