<svg width="40" height="39" viewBox="0 0 40 39" fill="none" xmlns="http://www.w3.org/2000/svg">
<path d="M20.0063 0.290894C11.9547 0.290894 9.59996 0.2992 9.14223 0.337171C7.48991 0.474518 6.46173 0.734678 5.34159 1.29237C4.47835 1.72103 3.79754 2.21791 3.12563 2.91444C1.90197 4.18468 1.16035 5.74742 0.891882 7.60503C0.761358 8.50683 0.723387 8.69075 0.715674 13.2971C0.712707 14.8325 0.715674 16.8533 0.715674 19.5638C0.715674 27.6088 0.724573 29.9612 0.763137 30.4181C0.896629 32.0259 1.14878 33.0375 1.68274 34.144C2.70321 36.262 4.65218 37.8521 6.94823 38.4454C7.74324 38.65 8.62132 38.7628 9.74858 38.8162C10.2262 38.8369 15.0942 38.8518 19.9651 38.8518C24.836 38.8518 29.707 38.8458 30.1727 38.8221C31.478 38.7607 32.2359 38.6589 33.0739 38.4424C35.3848 37.8461 37.2982 36.2798 38.3394 34.1321C38.863 33.0523 39.1285 32.0022 39.2486 30.4783C39.2748 30.1461 39.2857 24.8488 39.2857 19.5587C39.2857 14.2677 39.2739 8.98028 39.2478 8.64804C39.1261 7.09954 38.8606 6.05831 38.3201 4.95775C37.8767 4.05683 37.3842 3.38403 36.6693 2.69611C35.3934 1.47748 33.8331 0.735864 31.9737 0.467695C31.0728 0.337467 30.8933 0.298903 26.2834 0.290894L20.0063 0.290894Z" fill="url(#paint0_radial)"/>
<path d="M20.0063 0.290894C11.9547 0.290894 9.59996 0.2992 9.14223 0.337171C7.48991 0.474518 6.46173 0.734678 5.34159 1.29237C4.47835 1.72103 3.79754 2.21791 3.12563 2.91444C1.90197 4.18468 1.16035 5.74742 0.891882 7.60503C0.761358 8.50683 0.723387 8.69075 0.715674 13.2971C0.712707 14.8325 0.715674 16.8533 0.715674 19.5638C0.715674 27.6088 0.724573 29.9612 0.763137 30.4181C0.896629 32.0259 1.14878 33.0375 1.68274 34.144C2.70321 36.262 4.65218 37.8521 6.94823 38.4454C7.74324 38.65 8.62132 38.7628 9.74858 38.8162C10.2262 38.8369 15.0942 38.8518 19.9651 38.8518C24.836 38.8518 29.707 38.8458 30.1727 38.8221C31.478 38.7607 32.2359 38.6589 33.0739 38.4424C35.3848 37.8461 37.2982 36.2798 38.3394 34.1321C38.863 33.0523 39.1285 32.0022 39.2486 30.4783C39.2748 30.1461 39.2857 24.8488 39.2857 19.5587C39.2857 14.2677 39.2739 8.98028 39.2478 8.64804C39.1261 7.09954 38.8606 6.05831 38.3201 4.95775C37.8767 4.05683 37.3842 3.38403 36.6693 2.69611C35.3934 1.47748 33.8331 0.735864 31.9737 0.467695C31.0728 0.337467 30.8933 0.298903 26.2834 0.290894L20.0063 0.290894Z" fill="url(#paint1_radial)"/>
<path d="M19.9976 5.33386C16.1305 5.33386 15.6452 5.35077 14.1263 5.41989C12.6105 5.48931 11.5758 5.72929 10.6704 6.08141C9.73388 6.4451 8.93946 6.9316 8.148 7.72336C7.35595 8.51481 6.86945 9.30923 6.50458 10.2455C6.15157 11.1511 5.91128 12.1861 5.84306 13.7014C5.77512 15.2202 5.75732 15.7058 5.75732 19.5729C5.75732 23.44 5.77453 23.9239 5.84335 25.4427C5.91306 26.9586 6.15305 27.9933 6.50487 28.8986C6.86886 29.8351 7.35536 30.6296 8.14711 31.421C8.93827 32.2131 9.73269 32.7008 10.6686 33.0644C11.5746 33.4166 12.6096 33.6566 14.1251 33.726C15.644 33.7951 16.129 33.812 19.9958 33.812C23.8632 33.812 24.347 33.7951 25.8658 33.726C27.3817 33.6566 28.4176 33.4166 29.3235 33.0644C30.2598 32.7008 31.053 32.2131 31.8442 31.421C32.6362 30.6296 33.1227 29.8351 33.4876 28.8989C33.8376 27.9933 34.0779 26.9583 34.1491 25.443C34.2173 23.9242 34.2351 23.44 34.2351 19.5729C34.2351 15.7058 34.2173 15.2205 34.1491 13.7017C34.0779 12.1858 33.8376 11.1511 33.4876 10.2457C33.1227 9.30923 32.6362 8.51481 31.8442 7.72336C31.0521 6.93131 30.2601 6.44481 29.3227 6.08141C28.4149 5.72929 27.3796 5.48931 25.8638 5.41989C24.3449 5.35077 23.8614 5.33386 19.9931 5.33386H19.9976ZM18.7202 7.89986C19.0993 7.89927 19.5223 7.89986 19.9976 7.89986C23.7994 7.89986 24.25 7.91351 25.7513 7.98174C27.1396 8.04522 27.8931 8.2772 28.395 8.47209C29.0595 8.73018 29.5333 9.03869 30.0313 9.53706C30.5297 10.0354 30.8382 10.5101 31.0969 11.1745C31.2918 11.6759 31.5241 12.4294 31.5873 13.8177C31.6555 15.3187 31.6703 15.7696 31.6703 19.5697C31.6703 23.3697 31.6555 23.8206 31.5873 25.3217C31.5238 26.71 31.2918 27.4634 31.0969 27.9648C30.8388 28.6293 30.5297 29.1024 30.0313 29.6005C29.533 30.0989 29.0598 30.4074 28.395 30.6655C27.8937 30.8612 27.1396 31.0926 25.7513 31.1561C24.2503 31.2243 23.7994 31.2392 19.9976 31.2392C16.1954 31.2392 15.7448 31.2243 14.2438 31.1561C12.8555 31.092 12.102 30.8601 11.5998 30.6652C10.9353 30.4071 10.4607 30.0986 9.96229 29.6002C9.46393 29.1018 9.15541 28.6284 8.89674 27.9636C8.70184 27.4623 8.46957 26.7088 8.40638 25.3205C8.33815 23.8194 8.32451 23.3685 8.32451 19.5661C8.32451 15.7637 8.33815 15.3152 8.40638 13.8141C8.46986 12.4258 8.70184 11.6723 8.89674 11.1704C9.15482 10.5059 9.46393 10.0313 9.96229 9.5329C10.4607 9.03454 10.9353 8.72602 11.5998 8.46735C12.1017 8.27156 12.8555 8.04018 14.2438 7.9764C15.5574 7.91707 16.0664 7.89927 18.7202 7.8963V7.89986ZM27.5983 10.2641C26.6549 10.2641 25.8896 11.0286 25.8896 11.9722C25.8896 12.9156 26.6549 13.6809 27.5983 13.6809C28.5416 13.6809 29.3069 12.9156 29.3069 11.9722C29.3069 11.0289 28.5416 10.2635 27.5983 10.2635V10.2641ZM19.9976 12.2606C15.9593 12.2606 12.6852 15.5347 12.6852 19.5729C12.6852 23.6112 15.9593 26.8838 19.9976 26.8838C24.0358 26.8838 27.3087 23.6112 27.3087 19.5729C27.3087 15.5347 24.0355 12.2606 19.9973 12.2606H19.9976ZM19.9976 14.8266C22.6187 14.8266 24.7439 16.9515 24.7439 19.5729C24.7439 22.1941 22.6187 24.3193 19.9976 24.3193C17.3761 24.3193 15.2512 22.1941 15.2512 19.5729C15.2512 16.9515 17.3761 14.8266 19.9976 14.8266Z" fill="white"/>
<defs>
<radialGradient id="paint0_radial" cx="0" cy="0" r="1" gradientUnits="userSpaceOnUse" gradientTransform="translate(10.9599 41.8218) rotate(-90) scale(38.2168 35.5543)">
<stop stop-color="#FFDD55"/>
<stop offset="0.1" stop-color="#FFDD55"/>
<stop offset="0.5" stop-color="#FF543E"/>
<stop offset="1" stop-color="#C837AB"/>
</radialGradient>
<radialGradient id="paint1_radial" cx="0" cy="0" r="1" gradientUnits="userSpaceOnUse" gradientTransform="translate(-5.74654 3.06875) rotate(78.6776) scale(17.0832 70.4353)">
<stop stop-color="#3771C8"/>
<stop offset="0.13" stop-color="#3771C8"/>
<stop offset="1" stop-color="#6600FF" stop-opacity="0"/>
</radialGradient>
</defs>
</svg>
