<svg width="24" height="24" viewBox="0 0 24 24" fill="none" xmlns="http://www.w3.org/2000/svg">
<rect width="24" height="24" rx="12" fill="#908C8E"/>
<g clip-path="url(#clip0)">
<path d="M11.4669 7.07632C12.1737 7.07632 12.7479 6.50276 12.7479 5.79525C12.7479 5.08754 12.1737 4.51416 11.4669 4.51416C10.7593 4.51416 10.1855 5.08754 10.1855 5.79525C10.1855 6.50276 10.7593 7.07632 11.4669 7.07632Z" fill="white"/>
<path d="M13.447 14.3357C13.1066 15.5177 12.0169 16.3858 10.7268 16.3858C9.16443 16.3858 7.89388 15.1152 7.89388 13.5533C7.89388 12.3971 8.59137 11.402 9.58677 10.9623V9.76147C7.95667 10.2525 6.76562 11.7657 6.76562 13.5533C6.76562 15.7372 8.54257 17.5142 10.7268 17.5142C12.3185 17.5142 13.6905 16.5682 14.3195 15.2108L13.8723 14.3321C13.7467 14.3331 13.6013 14.3344 13.447 14.3357Z" fill="white"/>
<path d="M17.1802 15.8563L15.4642 12.4827C15.3361 12.2302 15.0772 12.0714 14.794 12.0714H12.5963V11.5702H14.4877C14.6766 11.5702 14.8354 11.4715 14.9379 11.3293C15.0046 11.2366 15.052 11.129 15.052 11.0059C15.052 10.6944 14.7996 10.4418 14.4877 10.4418H13.3482H12.5963V8.74194C12.5963 8.27445 12.2496 7.61353 11.4682 7.61353C10.845 7.61353 10.3398 8.11881 10.3398 8.74194V12.4247C10.3398 13.0604 10.8552 13.5758 11.4909 13.5758H13.559H14.3328L15.8396 16.5384C15.972 16.7993 16.2363 16.9499 16.5105 16.9499C16.6254 16.9499 16.742 16.9236 16.8509 16.8679C17.2218 16.6798 17.369 16.2266 17.1802 15.8563Z" fill="white"/>
</g>
<defs>
<clipPath id="clip0">
<rect width="13" height="13" fill="white" transform="translate(5.51367 4.51416)"/>
</clipPath>
</defs>
</svg>
