<svg width="80" height="81" viewBox="0 0 80 81" fill="none" xmlns="http://www.w3.org/2000/svg">
<path d="M43.103 60.3196H38.4586C38.2168 60.3196 37.985 60.4156 37.8141 60.5866C37.6431 60.7575 37.5471 60.9893 37.5471 61.2311C37.5471 61.4728 37.6431 61.7046 37.8141 61.8756C37.985 62.0465 38.2168 62.1425 38.4586 62.1425H43.103C43.3447 62.1425 43.5766 62.0465 43.7475 61.8756C43.9184 61.7046 44.0145 61.4728 44.0145 61.2311C44.0145 60.9893 43.9184 60.7575 43.7475 60.5866C43.5766 60.4156 43.3447 60.3196 43.103 60.3196Z" fill="#2E2C2D"/>
<path d="M58.9584 34.7969C57.1206 34.7969 55.5321 35.3112 54.3647 36.2841C54.257 36.3739 54.1471 36.4733 54.0365 36.5819V22.5833C54.0347 21.9554 53.7845 21.3537 53.3404 20.9096C52.8964 20.4656 52.2947 20.2154 51.6668 20.2135H29.7918C29.1638 20.2154 28.5621 20.4656 28.1181 20.9096C27.6741 21.3537 27.4238 21.9554 27.422 22.5833V25.0078L27.309 24.8949C26.5911 24.1769 25.6173 23.7736 24.602 23.7736C23.5867 23.7736 22.6129 24.1769 21.895 24.8949C21.177 25.6128 20.7737 26.5866 20.7737 27.6019C20.7737 28.6172 21.177 29.591 21.895 30.3089L25.8392 34.2532C25.2008 34.4394 24.6219 34.7886 24.1595 35.2664C23.697 35.7443 23.367 36.3343 23.2018 36.9784C23.0366 37.6226 23.042 38.2986 23.2174 38.9401C23.3929 39.5815 23.7323 40.1662 24.2023 40.6366L26.446 42.8802C25.7336 42.9669 25.0599 43.2521 24.5019 43.7033C23.9438 44.1545 23.5239 44.7535 23.2899 45.4319C23.056 46.1103 23.0175 46.8409 23.1788 47.5401C23.3401 48.2394 23.6948 48.8792 24.2023 49.3866L25.7166 50.9011C25.0042 50.9878 24.3306 51.2731 23.7725 51.7242C23.2145 52.1754 22.7945 52.7744 22.5606 53.4528C22.3266 54.1313 22.2881 54.8618 22.4495 55.5611C22.6108 56.2603 22.9655 56.9002 23.473 57.4075L27.422 61.3568V63.4167C27.4227 64.045 27.6726 64.6473 28.1168 65.0916C28.5611 65.5359 29.1635 65.7858 29.7918 65.7864H47.2918C47.5335 65.7864 47.7653 65.6904 47.9363 65.5195C48.1072 65.3486 48.2032 65.1167 48.2032 64.875V56.125C48.205 55.3612 48.3837 54.6082 48.7253 53.9251C49.0669 53.242 49.562 52.6472 50.172 52.1875L53.672 49.5625C53.7846 49.4771 53.8761 49.3669 53.9393 49.2404C54.0025 49.114 54.0358 48.9747 54.0365 48.8333V41.5417C54.0365 37.9116 56.2523 36.8991 58.047 36.6745V64.875C58.047 65.1167 58.143 65.3486 58.3139 65.5195C58.4849 65.6904 58.7167 65.7864 58.9584 65.7864C59.2002 65.7864 59.432 65.6904 59.6029 65.5195C59.7739 65.3486 59.8699 65.1167 59.8699 64.875V35.7083C59.8699 35.4666 59.7739 35.2348 59.6029 35.0638C59.432 34.8929 59.2002 34.7969 58.9584 34.7969ZM29.7918 22.0364H51.6668C51.8118 22.0366 51.9508 22.0943 52.0533 22.1968C52.1558 22.2993 52.2135 22.4383 52.2136 22.5833V25.3137H29.2449V22.5833C29.245 22.4383 29.3027 22.2993 29.4052 22.1968C29.5077 22.0943 29.6468 22.0366 29.7918 22.0364ZM22.5962 27.6018C22.578 25.8361 24.7847 24.9235 26.02 26.1837L27.422 27.5857V33.2581L23.1837 29.0199C22.9969 28.8341 22.8487 28.6131 22.7479 28.3697C22.6471 28.1263 22.5955 27.8653 22.5962 27.6018ZM25.4911 36.5119C26.2376 35.7339 27.5806 35.7339 28.327 36.5119L32.4518 40.6367C34.2631 42.582 31.5538 45.2845 29.6159 43.4725L25.4911 39.3477C25.1157 38.9713 24.9048 38.4614 24.9048 37.9298C24.9048 37.3982 25.1157 36.8882 25.4911 36.5119ZM33.7407 39.3477L32.7501 38.3569C32.9386 36.5448 33.7522 34.8548 35.0513 33.5773C36.3503 32.2999 38.0536 31.5146 39.8686 31.3563C41.6836 31.1981 43.4971 31.6768 44.9976 32.7103C46.4981 33.7437 47.5919 35.2674 48.0911 37.0196C48.5904 38.7718 48.4639 40.6431 47.7335 42.3122C47.003 43.9813 45.7142 45.3439 44.0883 46.1661C42.4625 46.9883 40.601 47.2187 38.8238 46.8177C37.0465 46.4167 35.4644 45.4094 34.349 43.9688C34.7693 43.2387 34.9375 42.3904 34.8276 41.5552C34.7176 40.72 34.3357 39.9442 33.7407 39.3477ZM25.4911 45.2619C26.2376 44.4839 27.5806 44.4839 28.327 45.2619L32.4518 49.3867C34.2631 51.332 31.5538 54.0345 29.6159 52.2225L25.4911 48.0977C25.1157 47.7213 24.9048 47.2114 24.9048 46.6798C24.9048 46.1482 25.1157 45.6382 25.4911 45.2619ZM24.762 53.2827C25.5084 52.5048 26.8514 52.5048 27.5978 53.2827L31.7226 57.4075C33.5339 59.3528 30.8246 62.0553 28.8868 60.2433L24.762 56.1185C24.3865 55.7421 24.1757 55.2322 24.1757 54.7006C24.1757 54.169 24.3865 53.6591 24.762 53.2827ZM29.2449 63.4167V62.5052C29.5895 62.604 29.9462 62.6541 30.3046 62.654C30.8349 62.6542 31.3594 62.5442 31.8448 62.3309C32.3302 62.1175 32.766 61.8056 33.1244 61.4149C33.4829 61.0241 33.7562 60.5631 33.9269 60.0611C34.0977 59.5592 34.1622 59.0271 34.1164 58.4989H46.3803V63.9635H29.7918C29.6468 63.9634 29.5077 63.9057 29.4052 63.8032C29.3027 63.7007 29.245 63.5617 29.2449 63.4167ZM49.0782 50.7292C48.2424 51.3591 47.5638 52.1742 47.0957 53.1103C46.6277 54.0465 46.3828 55.0783 46.3803 56.125V56.6755H33.4714C33.336 56.4758 33.1821 56.2893 33.0116 56.1185L31.4971 54.604C32.2095 54.5174 32.8831 54.2321 33.4412 53.7809C33.9992 53.3298 34.4192 52.7308 34.6531 52.0523C34.8871 51.3739 34.9256 50.6434 34.7643 49.9441C34.6029 49.2449 34.2483 48.605 33.7407 48.0977L31.4971 45.854C32.0579 45.7873 32.5966 45.596 33.0739 45.2941C34.4515 46.9735 36.3549 48.1395 38.4768 48.6038C40.5987 49.0682 42.8152 48.8036 44.7683 47.8531C46.7213 46.9025 48.2969 45.3213 49.2406 43.3649C50.1843 41.4085 50.441 39.1911 49.9692 37.0708C49.4974 34.9506 48.3246 33.0513 46.6404 31.6797C44.9562 30.308 42.8587 29.5442 40.6869 29.5115C38.515 29.4787 36.3955 30.1791 34.6707 31.4994C32.9459 32.8196 31.7165 34.6828 31.1811 36.7879C31.1811 36.7879 29.3741 34.9974 29.2449 34.8971V27.1366H52.2136V48.3776L49.0782 50.7292Z" fill="#2E2C2D"/>
<path d="M39.7268 40.0833H41.2762C41.6187 40.0954 41.9431 40.2399 42.1811 40.4864C42.4191 40.733 42.5521 41.0623 42.5521 41.4049C42.5521 41.7476 42.4191 42.0769 42.1811 42.3234C41.9431 42.57 41.6187 42.7145 41.2762 42.7265H38.9785C38.6602 42.7338 38.4317 42.4247 38.4783 42.1207C38.4827 41.879 38.3908 41.6454 38.2229 41.4714C38.055 41.2974 37.8249 41.1973 37.5832 41.1929C37.3415 41.1886 37.1079 41.2805 36.9339 41.4483C36.7599 41.6162 36.6598 41.8463 36.6554 42.0881L36.6537 42.1825C36.6481 42.4913 36.7041 42.7982 36.8185 43.0851C36.9328 43.372 37.1032 43.6333 37.3196 43.8537C37.5361 44.074 37.7942 44.249 38.0791 44.3685C38.3639 44.488 38.6697 44.5495 38.9785 44.5495H39.6356V45.0963C39.6356 45.3381 39.7316 45.5699 39.9026 45.7408C40.0735 45.9118 40.3053 46.0078 40.5471 46.0078C40.7888 46.0078 41.0206 45.9118 41.1916 45.7408C41.3625 45.5699 41.4585 45.3381 41.4585 45.0963V44.5437C42.267 44.4848 43.0214 44.1162 43.5647 43.5146C44.108 42.9131 44.3981 42.125 44.3746 41.3148C44.3511 40.5046 44.0158 39.7347 43.4385 39.1657C42.8613 38.5966 42.0867 38.2723 41.2762 38.2604H39.7268C39.3883 38.2604 39.0638 38.126 38.8245 37.8867C38.5852 37.6473 38.4507 37.3228 38.4507 36.9844C38.4507 36.6459 38.5852 36.3214 38.8245 36.0821C39.0638 35.8428 39.3883 35.7083 39.7268 35.7083H41.9882C42.3092 35.7351 42.4763 35.9096 42.4895 36.2319C42.4843 36.3514 42.5028 36.4709 42.5438 36.5833C42.5848 36.6958 42.6476 36.7991 42.7285 36.8873C42.8919 37.0654 43.1194 37.1713 43.3609 37.1817C43.6024 37.1921 43.8382 37.1061 44.0163 36.9427C44.1945 36.7793 44.3004 36.5518 44.3108 36.3102C44.3242 35.9968 44.2742 35.6839 44.1635 35.3904C44.0529 35.0968 43.884 34.8287 43.667 34.6021C43.45 34.3756 43.1894 34.1953 42.9009 34.0721C42.6123 33.9489 42.3019 33.8854 41.9882 33.8854H41.4585V33.3385C41.4585 33.0968 41.3625 32.865 41.1916 32.694C41.0206 32.5231 40.7888 32.4271 40.5471 32.4271C40.3053 32.4271 40.0735 32.5231 39.9026 32.694C39.7316 32.865 39.6356 33.0968 39.6356 33.3385V33.8877C38.8223 33.9118 38.051 34.255 37.4886 34.843C36.9261 35.4311 36.6175 36.2168 36.6295 37.0304C36.6415 37.844 36.973 38.6203 37.5525 39.1915C38.1321 39.7628 38.913 40.0831 39.7268 40.0833Z" fill="#2E2C2D"/>
<circle cx="40" cy="40.396" r="39.5" stroke="#0EB155"/>
<circle cx="66.1333" cy="69.7484" r="8" fill="#0EB155" stroke="white" stroke-width="4"/>
</svg>
