<svg width="24" height="22" viewBox="0 0 24 22" fill="none" xmlns="http://www.w3.org/2000/svg">
<path d="M21.8534 5.84198C21.8542 5.8418 21.8549 5.84148 21.8557 5.8413C22.1351 5.75299 22.4358 5.89394 22.5465 6.16545C22.6576 6.43782 22.5403 6.7497 22.2773 6.88138L14.8622 10.5941L17.6015 11.2527C17.8005 11.3006 17.9432 11.4752 17.9504 11.6798C17.9576 11.8843 17.8276 12.0686 17.6323 12.1303L15.9743 12.6544C15.9267 12.6695 15.8769 12.6766 15.8269 12.6754L9.21844 12.5313L3.14814 14.4389C0.82303 15.1353 0.372026 14.3342 0.289196 14.0722C0.224949 13.8691 0.200977 13.5345 0.45125 13.0946C0.705086 12.6485 1.18563 12.1833 1.92006 11.6728C2.16522 11.5023 2.27677 11.3844 2.3949 11.2597C2.8102 10.821 3.12846 10.56 5.3138 9.86915L17.2666 6.09121L18.7338 1.45798C18.7892 1.28327 18.9261 1.14647 19.1009 1.09126L19.882 0.844415C20.0428 0.793593 20.2178 0.81752 20.3591 0.909621C20.5003 1.00177 20.5929 1.15236 20.6112 1.31989L21.131 6.0739L21.8534 5.84198Z" fill="#908C8E"/>
<path d="M1.07249 18.2427H22.1309C22.7231 18.2427 23.2031 18.7229 23.2031 19.315C23.2031 19.907 22.7231 20.3872 22.1309 20.3872H1.07249C0.48033 20.3872 0.000272751 19.9071 0.000272751 19.315C0.000337601 18.7227 0.48033 18.2427 1.07249 18.2427Z" fill="#908C8E"/>
</svg>
