<svg width="24" height="18" viewBox="0 0 24 18" fill="none" xmlns="http://www.w3.org/2000/svg">
<path d="M21.5569 10.7124C21.5575 10.7128 21.5583 10.7131 21.559 10.7135C21.819 10.8487 21.932 11.161 21.8182 11.4312C21.7042 11.7024 21.4008 11.84 21.1217 11.7471L13.2531 9.12916L14.7244 11.5318C14.8313 11.7064 14.8087 11.9308 14.6691 12.0805C14.5296 12.2302 14.3073 12.2686 14.1256 12.1741L12.5826 11.3723C12.5383 11.3493 12.4981 11.3192 12.4635 11.283L7.89252 6.50822L2.2513 3.56473C0.114811 2.41302 0.362329 1.52769 0.489027 1.28385C0.587246 1.09477 0.80687 0.84125 1.29487 0.707191C1.78984 0.571194 2.45859 0.582043 3.33889 0.740383C3.63277 0.793206 3.79499 0.78875 3.96676 0.784036C4.57061 0.767505 4.98021 0.807994 7.01396 1.86478L18.1373 7.64527L22.4509 5.40656C22.6136 5.32216 22.8071 5.32223 22.9698 5.40682L23.6967 5.78459C23.8463 5.86234 23.9532 6.00305 23.9879 6.16804C24.0227 6.3331 23.9816 6.505 23.8761 6.63641L20.8821 10.3656L21.5569 10.7124Z" fill="#0EB155"/>
<path d="M1.07249 15.2427H22.1309C22.7231 15.2427 23.2031 15.7229 23.2031 16.3149C23.2031 16.9069 22.7231 17.3871 22.1309 17.3871H1.07249C0.48033 17.3871 0.000272751 16.9071 0.000272751 16.3149C0.000337601 15.7227 0.48033 15.2427 1.07249 15.2427Z" fill="#0EB155"/>
</svg>
