<svg width="24" height="18" viewBox="0 0 24 18" fill="none" xmlns="http://www.w3.org/2000/svg">
<path d="M21.5569 10.7125C21.5575 10.7129 21.5583 10.7132 21.559 10.7136C21.819 10.8488 21.932 11.1611 21.8182 11.4313C21.7042 11.7025 21.4008 11.8401 21.1217 11.7472L13.2531 9.12927L14.7244 11.5319C14.8313 11.7065 14.8087 11.9309 14.6691 12.0806C14.5296 12.2303 14.3073 12.2687 14.1256 12.1742L12.5826 11.3724C12.5383 11.3495 12.4981 11.3193 12.4635 11.2831L7.89252 6.50834L2.2513 3.56484C0.114811 2.41314 0.362329 1.5278 0.489027 1.28396C0.587246 1.09489 0.80687 0.841361 1.29487 0.707302C1.78984 0.571305 2.45859 0.582154 3.33889 0.740493C3.63277 0.793316 3.79499 0.788861 3.96676 0.784147C4.57061 0.767615 4.98021 0.808104 7.01396 1.86489L18.1373 7.64539L22.4509 5.40667C22.6136 5.32227 22.8071 5.32234 22.9698 5.40693L23.6967 5.7847C23.8463 5.86245 23.9532 6.00316 23.9879 6.16815C24.0227 6.33321 23.9816 6.50511 23.8761 6.63652L20.8821 10.3657L21.5569 10.7125Z" fill="#908C8E"/>
<path d="M1.07249 15.2427H22.1309C22.7231 15.2427 23.2031 15.7229 23.2031 16.315C23.2031 16.907 22.7231 17.3872 22.1309 17.3872H1.07249C0.48033 17.3872 0.000272751 16.9071 0.000272751 16.315C0.000337601 15.7227 0.48033 15.2427 1.07249 15.2427Z" fill="#908C8E"/>
</svg>
