<svg width="24" height="22" viewBox="0 0 24 22" fill="none" xmlns="http://www.w3.org/2000/svg">
<path d="M21.8534 5.8422C21.8542 5.84202 21.8549 5.8417 21.8557 5.84152C22.1351 5.75321 22.4358 5.89416 22.5465 6.16567C22.6576 6.43804 22.5403 6.74992 22.2773 6.8816L14.8622 10.5943L17.6015 11.2529C17.8005 11.3008 17.9432 11.4754 17.9504 11.68C17.9576 11.8845 17.8276 12.0688 17.6323 12.1305L15.9743 12.6546C15.9267 12.6697 15.8769 12.6768 15.8269 12.6757L9.21844 12.5316L3.14814 14.4391C0.82303 15.1355 0.372026 14.3344 0.289196 14.0724C0.224949 13.8693 0.200977 13.5347 0.45125 13.0948C0.705086 12.6487 1.18563 12.1835 1.92006 11.673C2.16522 11.5025 2.27677 11.3847 2.3949 11.2599C2.8102 10.8212 3.12846 10.5602 5.3138 9.86937L17.2666 6.09143L18.7338 1.4582C18.7892 1.28349 18.9261 1.14669 19.1009 1.09148L19.882 0.844635C20.0428 0.793813 20.2178 0.81774 20.3591 0.90984C20.5003 1.00199 20.5929 1.15258 20.6112 1.32011L21.131 6.07412L21.8534 5.8422Z" fill="#0EB155"/>
<path d="M1.07249 18.2432H22.1309C22.7231 18.2432 23.2031 18.7234 23.2031 19.3154C23.2031 19.9074 22.7231 20.3876 22.1309 20.3876H1.07249C0.48033 20.3876 0.000272751 19.9075 0.000272751 19.3154C0.000337601 18.7232 0.48033 18.2432 1.07249 18.2432Z" fill="#0EB155"/>
</svg>
