<svg width="60" height="60" viewBox="0 0 60 60" fill="none" xmlns="http://www.w3.org/2000/svg">
<g clip-path="url(#clip0)">
<path d="M36.25 60.0001H3.75C1.6825 60.0001 0 58.3176 0 56.2501V23.7501C0 21.6826 1.6825 20.0001 3.75 20.0001H36.25C38.3175 20.0001 40 21.6826 40 23.7501V56.2501C40 58.3176 38.3175 60.0001 36.25 60.0001ZM3.75 22.5001C3.06 22.5001 2.5 23.0626 2.5 23.7501V56.2501C2.5 56.9376 3.06 57.5001 3.75 57.5001H36.25C36.94 57.5001 37.5 56.9376 37.5 56.2501V23.7501C37.5 23.0626 36.94 22.5001 36.25 22.5001H3.75Z" fill="white"/>
<path d="M56.25 15H3.75C1.6825 15 0 13.3175 0 11.25V3.75C0 1.6825 1.6825 0 3.75 0H56.25C58.3175 0 60 1.6825 60 3.75V11.25C60 13.3175 58.3175 15 56.25 15ZM3.75 2.5C3.06 2.5 2.5 3.0625 2.5 3.75V11.25C2.5 11.9375 3.06 12.5 3.75 12.5H56.25C56.94 12.5 57.5 11.9375 57.5 11.25V3.75C57.5 3.0625 56.94 2.5 56.25 2.5H3.75Z" fill="white"/>
<path d="M52.5 59.3751C48.365 59.3751 45 56.0101 45 51.8751C45 47.7401 48.365 44.3751 52.5 44.3751C56.635 44.3751 60 47.7401 60 51.8751C60 56.0101 56.635 59.3751 52.5 59.3751ZM52.5 46.8751C49.7425 46.8751 47.5 49.1176 47.5 51.8751C47.5 54.6326 49.7425 56.8751 52.5 56.8751C55.2575 56.8751 57.5 54.6326 57.5 51.8751C57.5 49.1176 55.2575 46.8751 52.5 46.8751Z" fill="white"/>
<path d="M58.75 32.5H46.25C45.56 32.5 45 31.94 45 31.25C45 30.56 45.56 30 46.25 30H58.75C59.44 30 60 30.56 60 31.25C60 31.94 59.44 32.5 58.75 32.5Z" fill="white"/>
<path d="M58.75 40H46.25C45.56 40 45 39.44 45 38.75C45 38.06 45.56 37.5 46.25 37.5H58.75C59.44 37.5 60 38.06 60 38.75C60 39.44 59.44 40 58.75 40Z" fill="white"/>
<path d="M58.75 25H46.25C45.56 25 45 24.44 45 23.75C45 23.06 45.56 22.5 46.25 22.5H58.75C59.44 22.5 60 23.06 60 23.75C60 24.44 59.44 25 58.75 25Z" fill="white"/>
<path d="M20 37.5C17.9325 37.5 16.25 35.8175 16.25 33.75C16.25 31.6825 17.9325 30 20 30C22.0675 30 23.75 31.6825 23.75 33.75C23.75 35.8175 22.0675 37.5 20 37.5ZM20 32.5C19.31 32.5 18.75 33.0625 18.75 33.75C18.75 34.4375 19.31 35 20 35C20.69 35 21.25 34.4375 21.25 33.75C21.25 33.0625 20.69 32.5 20 32.5Z" fill="white"/>
<path d="M26.25 47.4999C25.56 47.4999 25 46.9399 25 46.2499V44.9999C25 43.6199 23.8775 42.4999 22.5 42.4999H17.5C16.1225 42.4999 15 43.6199 15 44.9999V46.2499C15 46.9399 14.44 47.4999 13.75 47.4999C13.06 47.4999 12.5 46.9399 12.5 46.2499V44.9999C12.5 42.2424 14.7425 39.9999 17.5 39.9999H22.5C25.2575 39.9999 27.5 42.2424 27.5 44.9999V46.2499C27.5 46.9399 26.94 47.4999 26.25 47.4999Z" fill="white"/>
</g>
<defs>
<clipPath id="clip0">
<rect width="60" height="60" fill="white"/>
</clipPath>
</defs>
</svg>
