<svg width="61" height="60" viewBox="0 0 61 60" fill="none" xmlns="http://www.w3.org/2000/svg">
<g clip-path="url(#clip0)">
<path d="M56.3809 0H4.38086C2.17172 0 0.380859 1.79086 0.380859 4V48C0.380859 50.2091 2.17172 52 4.38086 52H33.5619L34.4709 55.223C34.653 55.8684 35.1465 56.3796 35.7851 56.5844C36.4237 56.7891 37.1224 56.6602 37.6459 56.241L39.5339 54.73L43.3899 59.1C43.7552 59.5136 44.2752 59.7579 44.8269 59.775H44.8879C45.4183 59.7746 45.927 59.5642 46.3029 59.19L47.7179 57.775C48.4594 57.0286 48.4982 55.8361 47.8069 55.043L45.1419 52H56.3809C58.59 52 60.3809 50.2091 60.3809 48V4C60.3809 1.79086 58.59 0 56.3809 0V0ZM2.38086 4C2.38086 2.89543 3.27629 2 4.38086 2H56.3809C57.4854 2 58.3809 2.89543 58.3809 4V8H2.38086V4ZM46.3029 56.358L44.8889 57.771L40.4029 52.692C40.0495 52.292 39.4442 52.2401 39.0279 52.574L36.3959 54.68L33.3809 44L43.9289 48.65L42.1709 50.06C41.9577 50.2306 41.8236 50.4809 41.7996 50.7529C41.7756 51.0248 41.8639 51.2947 42.0439 51.5L46.3029 56.357V56.358ZM32.0699 42.493C31.6308 42.8704 31.379 43.4211 31.3809 44H21.3809C19.1717 44 17.3809 42.2091 17.3809 40C17.3809 37.7909 19.1717 36 21.3809 36H39.3809C41.59 36 43.3809 37.7909 43.3809 40C43.3809 42.2091 41.59 44 39.3809 44H38.3349L34.1899 42.172C33.4814 41.8543 32.6525 41.9798 32.0699 42.493V42.493ZM58.3809 48C58.3809 49.1046 57.4854 50 56.3809 50H45.3869C45.831 49.531 46.0185 48.8747 45.889 48.2418C45.7596 47.6089 45.3295 47.079 44.7369 46.822L41.7559 45.508C44.3672 44.3799 45.8275 41.5732 45.2525 38.7873C44.6776 36.0014 42.2255 34.0021 39.3809 34H21.3809C18.0672 34 15.3809 36.6863 15.3809 40C15.3809 43.3137 18.0672 46 21.3809 46H31.8689L32.9969 50H4.38086C3.27629 50 2.38086 49.1046 2.38086 48V10H58.3809V48Z" fill="white"/>
<path d="M5.38086 6C5.93315 6 6.38086 5.55229 6.38086 5C6.38086 4.44772 5.93315 4 5.38086 4C4.82858 4 4.38086 4.44772 4.38086 5C4.38086 5.55229 4.82858 6 5.38086 6Z" fill="white"/>
<path d="M9.38086 6C9.93315 6 10.3809 5.55229 10.3809 5C10.3809 4.44772 9.93315 4 9.38086 4C8.82858 4 8.38086 4.44772 8.38086 5C8.38086 5.55229 8.82858 6 9.38086 6Z" fill="white"/>
<path d="M13.3809 6C13.9331 6 14.3809 5.55229 14.3809 5C14.3809 4.44772 13.9331 4 13.3809 4C12.8286 4 12.3809 4.44772 12.3809 5C12.3809 5.55229 12.8286 6 13.3809 6Z" fill="white"/>
<path d="M18.2108 29H41.3808C41.9331 29 42.3808 28.5523 42.3808 28C42.3808 27.4477 41.9331 27 41.3808 27H18.2108C17.015 27.0087 15.9446 26.2595 15.5433 25.133C15.1421 24.0064 15.4978 22.7493 16.4298 22H27.3808C27.6846 22.0001 27.972 21.8621 28.1618 21.625L31.8618 17H41.3808C41.9331 17 42.3808 16.5523 42.3808 16C42.3808 15.4477 41.9331 15 41.3808 15H25.4888C24.5826 15.0002 23.6933 15.2463 22.9158 15.712L15.7258 20.027C13.8645 21.1444 12.9771 23.3661 13.5565 25.4584C14.136 27.5506 16.0399 28.9994 18.2108 29ZM23.9438 17.428C24.4107 17.1483 24.9446 17.0004 25.4888 17H29.2998L26.8998 20H19.6578L23.9438 17.428Z" fill="white"/>
<path d="M35.3809 20C35.3809 20.5523 35.8286 21 36.3809 21H44.3809C44.9331 21 45.3809 20.5523 45.3809 20C45.3809 19.4477 44.9331 19 44.3809 19H36.3809C35.8286 19 35.3809 19.4477 35.3809 20Z" fill="white"/>
<path d="M44.3809 23.0001H36.3809C35.8286 23.0001 35.3809 23.4478 35.3809 24.0001C35.3809 24.5523 35.8286 25.0001 36.3809 25.0001H44.3809C44.9331 25.0001 45.3809 24.5523 45.3809 24.0001C45.3809 23.4478 44.9331 23.0001 44.3809 23.0001Z" fill="white"/>
<path d="M6.38086 23.9999H9.38086C9.93314 23.9999 10.3809 23.5522 10.3809 22.9999C10.3809 22.4477 9.93314 21.9999 9.38086 21.9999H6.38086C5.82857 21.9999 5.38086 22.4477 5.38086 22.9999C5.38086 23.5522 5.82857 23.9999 6.38086 23.9999Z" fill="white"/>
<path d="M50.3809 22.9999C50.3809 23.5522 50.8286 23.9999 51.3809 23.9999H54.3809C54.9332 23.9999 55.3809 23.5522 55.3809 22.9999C55.3809 22.4477 54.9332 21.9999 54.3809 21.9999H51.3809C50.8286 21.9999 50.3809 22.4477 50.3809 22.9999Z" fill="white"/>
<path d="M10.5973 30.1121L7.82528 31.2611C7.48766 31.3927 7.24765 31.6967 7.19795 32.0557C7.14824 32.4146 7.29661 32.7723 7.58576 32.9908C7.87492 33.2092 8.2596 33.2541 8.59128 33.1081L11.3623 31.9601C11.6924 31.8235 11.9245 31.5211 11.9712 31.1669C12.0179 30.8127 11.8721 30.4604 11.5887 30.2429C11.3053 30.0253 10.9274 29.9755 10.5973 30.1121V30.1121Z" fill="white"/>
<path d="M49.7809 15.9638C49.9123 15.9635 50.0424 15.9377 50.1639 15.8878L52.9359 14.7388C53.2736 14.6072 53.5136 14.3032 53.5633 13.9442C53.613 13.5853 53.4646 13.2275 53.1754 13.0091C52.8863 12.7907 52.5016 12.7458 52.1699 12.8918L49.3999 14.0398C48.9591 14.2222 48.7086 14.6906 48.8015 15.1585C48.8944 15.6264 49.3049 15.9636 49.7819 15.9638H49.7809Z" fill="white"/>
<path d="M49.4 31.96L52.171 33.108C52.5027 33.2539 52.8874 33.209 53.1765 32.9906C53.4657 32.7722 53.6141 32.4144 53.5644 32.0555C53.5146 31.6965 53.2746 31.3926 52.937 31.261L50.165 30.1119C49.6547 29.9007 49.0698 30.1431 48.8585 30.6534C48.6473 31.1638 48.8897 31.7487 49.4 31.96Z" fill="white"/>
<path d="M7.82528 14.7388L10.5973 15.8878C10.7188 15.9377 10.8489 15.9635 10.9803 15.9638C11.4573 15.9636 11.8678 15.6264 11.9607 15.1585C12.0536 14.6906 11.8031 14.2222 11.3623 14.0398L8.59128 12.8918C8.2596 12.7458 7.87492 12.7907 7.58576 13.0091C7.29661 13.2275 7.14824 13.5853 7.19795 13.9442C7.24765 14.3032 7.48766 14.6072 7.82528 14.7388V14.7388Z" fill="white"/>
<path d="M5.38086 47.9998H8.38086C8.93314 47.9998 9.38086 47.5521 9.38086 46.9998C9.38086 46.4475 8.93314 45.9998 8.38086 45.9998H6.38086V43.9998C6.38086 43.4475 5.93314 42.9998 5.38086 42.9998C4.82857 42.9998 4.38086 43.4475 4.38086 43.9998V46.9998C4.38086 47.5521 4.82857 47.9998 5.38086 47.9998Z" fill="white"/>
</g>
<defs>
<clipPath id="clip0">
<rect width="60" height="60" fill="white" transform="translate(0.380859)"/>
</clipPath>
</defs>
</svg>
