<svg width="61" height="60" viewBox="0 0 61 60" fill="none" xmlns="http://www.w3.org/2000/svg">
<g clip-path="url(#clip0)">
<path d="M8.46875 23.8475H17.5494C18.1965 23.8475 18.7212 23.3228 18.7212 22.6757C18.7212 22.0285 18.1965 21.5038 17.5494 21.5038H8.46875C7.82164 21.5038 7.29688 22.0285 7.29688 22.6757C7.29688 23.3228 7.82152 23.8475 8.46875 23.8475Z" fill="white"/>
<path d="M8.46875 31.9622H17.5494C18.1965 31.9622 18.7212 31.4375 18.7212 30.7903C18.7212 30.1432 18.1965 29.6185 17.5494 29.6185H8.46875C7.82164 29.6185 7.29688 30.1432 7.29688 30.7903C7.29688 31.4375 7.82152 31.9622 8.46875 31.9622Z" fill="white"/>
<path d="M19.7184 51.6044C19.4726 51.0151 18.7795 50.7258 18.1879 50.9706C17.5981 51.2147 17.3105 51.9119 17.5551 52.501C17.8 53.0911 18.4939 53.3789 19.0844 53.135C19.6738 52.8916 19.9635 52.1934 19.7184 51.6044Z" fill="white"/>
<path d="M60.0664 33.471L46.1277 18.5085L50.3954 14.2508C51.1366 13.5178 51.5449 12.5397 51.5449 11.4969C51.5449 10.4686 51.1467 9.50058 50.4243 8.77156C48.9298 7.26218 46.4699 7.24273 44.9406 8.72855C44.9368 8.73218 44.9332 8.73582 44.9295 8.73945L39.0782 14.5767H36.8919V10.0763C36.8919 9.42921 36.3671 8.90445 35.72 8.90445H29.5146V7.94714C29.5146 7.30003 28.9898 6.77527 28.3427 6.77527C27.6956 6.77527 27.1709 7.30003 27.1709 7.94714V8.90445H22.8899V7.94714C22.8899 7.30003 22.3651 6.77527 21.718 6.77527C21.0709 6.77527 20.5461 7.30003 20.5461 7.94714V8.90445H16.265V7.94714C16.265 7.30003 15.7403 6.77527 15.0932 6.77527C14.4461 6.77527 13.9213 7.30003 13.9213 7.94714V8.90445H9.64008V7.94714C9.64008 7.30003 9.11531 6.77527 8.4682 6.77527C7.82109 6.77527 7.29633 7.30003 7.29633 7.94714V8.90445H1.55273C0.905625 8.90445 0.380859 9.42921 0.380859 10.0763V52.0529C0.380859 52.7 0.905625 53.2248 1.55273 53.2248H13.5143C14.1614 53.2248 14.6862 52.7 14.6862 52.0529C14.6862 51.4058 14.1614 50.881 13.5143 50.881H2.72461V11.2482H7.29633V12.3114C7.29633 12.9585 7.82109 13.4833 8.4682 13.4833C9.11531 13.4833 9.64008 12.9585 9.64008 12.3114V11.2482H13.9212V12.3114C13.9212 12.9585 14.4459 13.4833 15.093 13.4833C15.7402 13.4833 16.2649 12.9585 16.2649 12.3114V11.2482H20.546V12.3114C20.546 12.9585 21.0708 13.4833 21.7179 13.4833C22.365 13.4833 22.8898 12.9585 22.8898 12.3114V11.2482H27.1707V12.3114C27.1707 12.9585 27.6955 13.4833 28.3426 13.4833C28.9897 13.4833 29.5145 12.9585 29.5145 12.3114V11.2482H34.548V14.5832C32.4431 14.6688 30.4329 15.5577 28.9404 17.0418L20.3164 25.6657C19.7953 26.1868 19.8921 27.0794 20.5086 27.4784C21.4796 28.1064 22.5681 28.5125 23.7054 28.6762C24.0845 28.7308 24.469 28.7585 24.8565 28.7585C24.8584 28.7585 24.8602 28.7584 24.8619 28.7584L23.5167 30.1004C23.4191 30.1979 23.3416 30.3113 23.2843 30.4338L19.5251 36.0803C19.1863 36.5892 19.048 37.1701 19.0986 37.7333H8.4682C7.82109 37.7333 7.29633 38.258 7.29633 38.9052C7.29633 39.5523 7.82109 40.077 8.4682 40.077H21.6662C22.1734 40.077 22.6849 39.9079 23.1026 39.6241L28.8165 35.7416C28.8841 35.6973 28.9494 35.645 29.0066 35.588L31.6568 32.9441L34.5482 35.8291V50.881H23.8246C23.1775 50.881 22.6527 51.4058 22.6527 52.0529C22.6527 52.7 23.1775 53.2248 23.8246 53.2248H35.72C36.3671 53.2248 36.8919 52.7 36.8919 52.0529V38.1167C38.3734 39.3471 40.2205 40.0177 42.171 40.0177H46.8464C47.8187 40.0177 48.7615 40.421 49.427 41.1178L58.3555 50.6061C59.0657 51.3609 60.3807 50.8408 60.3807 49.803V34.2698C60.3809 33.9734 60.2685 33.688 60.0664 33.471ZM30.5979 18.6992C31.733 17.5641 33.2873 16.9202 34.8926 16.9202H36.7286L29.4272 24.204C28.7516 24.8526 28.1121 25.4882 27.2469 25.8893C25.9703 26.4809 24.487 26.5754 23.1449 26.152L30.5979 18.6992ZM46.5783 10.4052C47.1896 9.81617 48.1662 9.82238 48.7591 10.4211C49.0441 10.7087 49.2011 11.0907 49.2011 11.4969C49.2011 11.9089 49.0399 12.295 48.7438 12.588L36.4965 24.8067L35.9064 24.2164C35.3537 23.6637 34.6563 23.2578 33.9032 23.0496L46.5783 10.4052ZM21.7853 37.6856C21.685 37.7538 21.5914 37.7459 21.5045 37.6597C21.3749 37.5312 21.4406 37.4325 21.476 37.3793L24.5384 32.7795L26.3474 34.5857L21.7853 37.6856ZM28.18 33.1021L26.0058 30.928L28.2387 28.7C28.4495 29.463 28.8671 30.1596 29.4259 30.7182L29.9977 31.2888L28.18 33.1021ZM58.0371 46.8478L51.128 39.5055C50.0164 38.3416 48.4559 37.6741 46.8464 37.6741H42.171C40.5879 37.6741 39.0993 37.059 37.9795 35.9422L31.0789 29.0567C30.0827 28.3096 30.3053 26.6534 31.0793 25.8673C31.9489 25.021 33.3984 25.0228 34.249 25.8736L39.8555 31.48C40.3065 31.9309 41.0616 31.931 41.5129 31.48C41.9705 31.0224 41.9705 30.2804 41.5129 29.8227L38.1539 26.4637L44.4675 20.1649L58.0371 34.7312V46.8478Z" fill="white"/>
</g>
<defs>
<clipPath id="clip0">
<rect width="60" height="60" fill="white" transform="translate(0.380859)"/>
</clipPath>
</defs>
</svg>
