<svg width="61" height="60" viewBox="0 0 61 60" fill="none" xmlns="http://www.w3.org/2000/svg">
<path d="M53.0026 49.6607C52.8692 41.5065 44.532 39.0973 38.4443 37.3382C37.734 37.133 37.0509 36.9355 36.4109 36.7384V33.3745C37.6554 32.5944 38.7459 31.5905 39.6257 30.4194H43.334C45.1486 30.4194 46.6251 28.943 46.6251 27.1283V23.1444C46.845 22.6316 46.9673 22.0672 46.9673 21.4746V20.2355C46.9673 19.6435 46.845 19.0795 46.6251 18.567V16.5118C46.6251 7.40722 39.2181 0 30.1136 0C21.011 0 13.6055 7.40722 13.6055 16.5119V18.5083C13.6055 18.524 13.6073 18.5391 13.6078 18.5547C13.3845 19.0706 13.26 19.6387 13.26 20.2357V21.4747C13.26 23.8169 15.1641 25.7225 17.5045 25.7225H18.4729C19.1437 28.9391 21.1184 31.6825 23.8164 33.374V36.7384C23.1762 36.9355 22.4933 37.1329 21.783 37.3382C15.6953 39.0973 7.35809 41.5066 7.22473 49.6607C7.22461 49.6672 7.22461 49.6735 7.22461 49.68V58.8281C7.22461 59.4753 7.74938 60 8.39649 60H11.8709C12.518 60 13.0428 59.4753 13.0428 58.8281C13.0428 58.1809 12.518 57.6562 11.8709 57.6562H9.56825V49.6897C9.61759 46.8447 10.9245 44.712 13.6808 42.9782C15.4997 41.8341 17.7234 41.019 19.9152 40.337L22.7466 45.8535C23.0622 46.4684 23.8702 46.6774 24.4444 46.29L25.7069 45.4383L26.7908 49.5121L24.9337 57.6561H22.394C21.7469 57.6561 21.2221 58.1808 21.2221 58.828C21.2221 59.4752 21.7469 59.9999 22.394 59.9999H51.8308C52.4779 59.9999 53.0027 59.4752 53.0027 58.828V49.6798C53.0027 49.6735 53.0027 49.6672 53.0026 49.6607ZM37.7937 39.5897C37.8709 39.612 37.9494 39.6348 38.0272 39.6573L36.0014 43.6082L32.2103 41.0518L35.4225 38.8851C36.1687 39.1199 36.9623 39.3495 37.7937 39.5897ZM30.1145 42.4654L32.4643 44.05L31.3287 48.3187H28.8986L27.7633 44.0513L30.1145 42.4654ZM30.1142 39.6385L26.1601 36.9721V34.5051C27.3977 34.9428 28.7279 35.1829 30.1135 35.1829C31.499 35.1829 32.8295 34.9436 34.067 34.5059V36.9721L30.1142 39.6385ZM39.6608 16.7262C39.6448 16.716 39.6288 16.7058 39.6128 16.6957C37.2082 15.1649 35.1314 13.8429 31.8773 14.774C31.8471 14.7827 31.8171 14.7925 31.7877 14.8035C31.0978 15.0626 30.4705 15.3042 29.8637 15.5377C26.1578 16.9642 24.1345 17.7433 20.5663 17.643V16.7046C20.5663 11.44 24.8492 7.15702 30.1135 7.15702C35.3778 7.15702 39.6607 11.44 39.6607 16.7046V16.7262H39.6608ZM44.2813 27.1283C44.2813 27.6507 43.8564 28.0757 43.334 28.0757H40.9986C41.3284 27.3281 41.5839 26.5407 41.7545 25.7224H42.723C43.2732 25.7224 43.7985 25.616 44.2814 25.4244V27.1283H44.2813ZM44.6235 21.4746C44.6235 22.5245 43.771 23.3786 42.7228 23.3786H42.0035C42.0038 23.3496 42.0047 18.3348 42.0047 18.3348H42.723C43.771 18.3348 44.6236 19.1874 44.6236 20.2355V21.4746H44.6235ZM17.5045 23.3788C16.4564 23.3788 15.6038 22.5246 15.6038 21.4747V20.2357C15.6038 19.1875 16.4563 18.3349 17.5045 18.3349H18.2227C18.2227 18.3349 18.2236 23.3497 18.2239 23.3788H17.5045ZM18.2446 15.991H17.5043C16.9565 15.991 16.4332 16.0965 15.9521 16.2863C16.0731 8.57769 22.3788 2.34376 30.1136 2.34376C37.8507 2.34376 44.1582 8.57839 44.2784 16.2876C43.7964 16.0969 43.2719 15.991 42.7228 15.991H41.9826C41.6122 9.76504 36.4307 4.81326 30.1136 4.81326C23.7965 4.81326 18.6149 9.76515 18.2446 15.991ZM20.6369 24.4317C20.6368 24.4305 20.6365 24.4294 20.6364 24.4282C20.592 24.0552 20.5665 23.6764 20.5665 23.2917V19.9866C24.5758 20.0844 26.9675 19.1642 30.7057 17.7251C31.2944 17.4985 31.903 17.2642 32.5659 17.015C34.7796 16.3971 36.0533 17.2081 38.3542 18.6728C38.7534 18.927 39.1914 19.2056 39.6608 19.4916V23.2917C39.6608 25.0344 39.1893 26.668 38.3705 28.0758H30.1136C29.4665 28.0758 28.9418 28.6004 28.9418 29.2477C28.9418 29.8949 29.4665 30.4195 30.1136 30.4195H36.4563C34.7686 31.9232 32.5465 32.8392 30.1136 32.8392C25.2352 32.8391 21.2023 29.1603 20.6369 24.4317ZM24.2287 43.6083L22.2006 39.6571C22.2782 39.6347 22.3565 39.612 22.4336 39.5897C23.2649 39.3495 24.0585 39.1198 24.805 38.885L28.0186 41.052L24.2287 43.6083ZM27.3377 57.6562L28.9325 50.6625H31.2951L32.8924 57.6562H27.3377ZM50.6589 57.6562H35.2965L33.4365 49.512L34.5208 45.4367L35.7864 46.2901C36.3608 46.6774 37.1688 46.4684 37.4843 45.8532L40.3125 40.3373C42.5043 41.0192 44.7278 41.8342 46.5466 42.9782C49.3028 44.7119 50.6098 46.8447 50.6592 49.6897V57.6562H50.6589Z" fill="white"/>
<path d="M46.0309 51.7966H40.125C39.4779 51.7966 38.9531 52.3212 38.9531 52.9684C38.9531 53.6157 39.4779 54.1403 40.125 54.1403H46.0309C46.678 54.1403 47.2028 53.6157 47.2028 52.9684C47.2028 52.3212 46.6781 51.7966 46.0309 51.7966Z" fill="white"/>
<path d="M17.1328 57.6561C16.4857 57.6561 15.9609 58.1808 15.9609 58.828C15.9609 59.4752 16.4857 59.9999 17.1328 59.9999H17.1361C17.7832 59.9999 18.3062 59.4752 18.3062 58.828C18.3062 58.1808 17.7799 57.6561 17.1328 57.6561Z" fill="white"/>
</svg>
