<svg width="61" height="60" viewBox="0 0 61 60" fill="none" xmlns="http://www.w3.org/2000/svg">
<g clip-path="url(#clip0)">
<path d="M26.2016 7.06824C19.2327 7.06824 12.6811 9.78781 7.75355 14.7261C2.82664 19.6637 0.113281 26.2282 0.113281 33.2105C0.113281 40.5284 3.17867 47.5078 8.54352 52.4544L8.12504 57.2551C8.0907 57.6496 8.25793 58.0348 8.56965 58.2792C8.88125 58.5235 9.29551 58.5937 9.67039 58.4661L14.7852 56.7234C18.3537 58.4684 22.1921 59.3528 26.2016 59.3528C33.1705 59.3528 39.7221 56.6333 44.6496 51.695C49.5764 46.7574 52.2897 40.1929 52.2897 33.2105C52.2897 26.2282 49.5764 19.6635 44.6496 14.7261C39.7221 9.78781 33.1705 7.06824 26.2016 7.06824ZM26.2016 57.0092C22.3989 57.0092 18.7667 56.1358 15.4059 54.4132C15.2388 54.3276 15.0554 54.2841 14.8713 54.2841C14.7439 54.2841 14.6162 54.3049 14.4934 54.3467L10.6161 55.6678L10.9291 52.0764C10.9614 51.7055 10.8155 51.3413 10.5361 51.0952C5.40172 46.5738 2.45703 40.0551 2.45703 33.2105C2.45703 20.088 13.1088 9.41199 26.2016 9.41199C39.2943 9.41199 49.9461 20.088 49.9461 33.2105C49.9461 46.3331 39.2942 57.0092 26.2016 57.0092Z" fill="white"/>
<path d="M45.7598 0.647156C45.1125 0.647156 44.5879 1.17192 44.5879 1.81903C44.5879 2.46614 45.1125 2.99091 45.7598 2.99091C52.3817 2.99091 57.769 8.39114 57.769 15.029C57.769 15.6761 58.2937 16.2009 58.9409 16.2009C59.5881 16.2009 60.1128 15.6761 60.1128 15.029C60.1128 7.0988 53.674 0.647156 45.7598 0.647156Z" fill="white"/>
<path d="M46.9932 6.57648C46.3459 6.57648 45.8213 7.10124 45.8213 7.74835C45.8213 8.39546 46.3459 8.92023 46.9932 8.92023C49.6729 8.92023 51.853 11.1062 51.853 13.7932C51.853 14.4403 52.3777 14.9651 53.0249 14.9651C53.6721 14.9651 54.1968 14.4403 54.1968 13.7932C54.1968 9.8139 50.9652 6.57648 46.9932 6.57648Z" fill="white"/>
<path d="M34.0241 16.6371H29.0932C27.0068 16.6371 25.0268 17.467 23.518 18.9739C22.0094 20.4805 21.1786 22.4572 21.1786 24.5395V28.182H18.3778C17.1496 28.182 16.1504 29.1812 16.1504 30.4094V34.0831C16.1504 35.3113 17.1495 36.3105 18.3778 36.3105H21.1786V48.6119C21.1786 49.259 21.7032 49.7838 22.3504 49.7838H28.1231C28.7703 49.7838 29.295 49.259 29.295 48.6119V36.3105H34.0241C35.2522 36.3105 36.2515 35.3114 36.2515 34.0831V30.4094C36.2515 29.1813 35.2523 28.182 34.0241 28.182H29.295V25.5096C29.295 25.0006 29.5424 24.7533 30.0513 24.7533H34.0241C35.2522 24.7533 36.2515 23.7541 36.2515 22.5259V18.8644C36.2515 17.6362 35.2522 16.6371 34.0241 16.6371ZM33.9077 22.4095H30.0513C28.2549 22.4095 26.9512 23.7133 26.9512 25.5096V29.3539C26.9512 30.001 27.4759 30.5258 28.1231 30.5258H33.9077V33.9667H28.1231C27.4759 33.9667 26.9512 34.4914 26.9512 35.1385V47.4399H23.5223V35.1386C23.5223 34.4915 22.9977 33.9668 22.3504 33.9668H18.4941V30.5259H22.3504C22.9977 30.5259 23.5223 30.0011 23.5223 29.354V24.5396C23.5223 21.5265 26.0735 18.9808 29.0932 18.9808H33.9076V22.4095H33.9077Z" fill="white"/>
</g>
<defs>
<clipPath id="clip0">
<rect width="60" height="60" fill="white" transform="translate(0.113281)"/>
</clipPath>
</defs>
</svg>
