<svg width="89" height="81" viewBox="0 0 89 81" fill="none" xmlns="http://www.w3.org/2000/svg">
<g clip-path="url(#clip0)">
<path d="M62.6225 36.4495L57.3214 20.136C57.1679 19.6643 56.6612 19.406 56.1892 19.5592L17.2877 32.2007C16.8159 32.354 16.5577 32.8609 16.7109 33.3329L19.2203 41.0548C19.2195 41.0699 19.218 41.0847 19.218 41.0999V58.2532C19.218 58.7493 19.6203 59.1516 20.1164 59.1516H61.0204C61.5165 59.1516 61.9188 58.7493 61.9188 58.2532V41.0999C61.9188 40.6038 61.5165 40.2015 61.0204 40.2015H53.9839L62.0458 37.5817C62.5176 37.4283 62.7758 36.9214 62.6225 36.4495ZM60.1218 41.9984V57.3548H21.0148V41.9984H25.9914V52.0076C25.9914 52.5037 26.3937 52.906 26.8898 52.906C27.3859 52.906 27.7882 52.5037 27.7882 52.0076V41.9984H48.312H60.1218ZM48.1697 40.2015H20.8323L18.6975 33.6319L23.4332 32.093L25.2446 37.5982C25.369 37.9763 25.7204 38.2161 26.0978 38.2161C26.1909 38.2161 26.2856 38.2015 26.3788 38.1708C26.8502 38.0156 27.1066 37.5079 26.9514 37.0365L25.1421 31.5376L55.8901 21.5457L60.636 36.1504L48.1697 40.2015Z" fill="#2E2C2D"/>
<path d="M54.5269 25.4837C54.3734 25.012 53.8666 24.7538 53.3947 24.9069L29.9701 32.5191C29.4982 32.6724 29.24 33.1793 29.3933 33.6513C29.5168 34.0309 29.8689 34.2723 30.2476 34.2723C30.3396 34.2723 30.4332 34.258 30.5255 34.2281L53.9501 26.6159C54.4219 26.4626 54.6802 25.9557 54.5269 25.4837Z" fill="#2E2C2D"/>
<path d="M50.5765 31.3195L55.0105 29.8787C55.4823 29.7253 55.7405 29.2184 55.5872 28.7465C55.4338 28.2746 54.927 28.0165 54.455 28.1697L50.0211 29.6105C49.5493 29.7638 49.2911 30.2707 49.4443 30.7427C49.5678 31.1224 49.9199 31.3637 50.2987 31.3637C50.3907 31.3637 50.4844 31.3494 50.5765 31.3195Z" fill="#2E2C2D"/>
<path d="M54.3238 35.4466C54.4472 35.8263 54.7993 36.0676 55.1781 36.0676C55.27 36.0676 55.3637 36.0533 55.456 36.0234L56.859 35.5674C57.3309 35.4141 57.5892 34.9072 57.4358 34.4352C57.2824 33.9634 56.7757 33.7052 56.3036 33.8584L54.9006 34.3144C54.4287 34.4677 54.1704 34.9746 54.3238 35.4466Z" fill="#2E2C2D"/>
<path d="M51.7671 35.3327L50.3639 35.7886C49.8921 35.942 49.6338 36.4489 49.7871 36.9208C49.9105 37.3005 50.2627 37.5418 50.6415 37.5418C50.7334 37.5418 50.827 37.5275 50.9193 37.4976L52.3225 37.0417C52.7944 36.8883 53.0526 36.3814 52.8993 35.9095C52.746 35.4376 52.2396 35.1795 51.7671 35.3327Z" fill="#2E2C2D"/>
<path d="M39.2291 33.1175L31.0304 35.7817C30.5586 35.9351 30.3003 36.4419 30.4536 36.9139C30.5771 37.2936 30.9292 37.5349 31.308 37.5349C31.3999 37.5349 31.4936 37.5206 31.5858 37.4907L39.7845 34.8265C40.2563 34.6731 40.5145 34.1662 40.3613 33.6943C40.2077 33.2224 39.7009 32.9643 39.2291 33.1175Z" fill="#2E2C2D"/>
<path d="M26.8899 54.1C26.3938 54.1 25.9915 54.5024 25.9915 54.9985V55.3503C25.9915 55.8464 26.3938 56.2487 26.8899 56.2487C27.386 56.2487 27.7883 55.8464 27.7883 55.3503V54.9985C27.7883 54.5024 27.386 54.1 26.8899 54.1Z" fill="#2E2C2D"/>
<path d="M31.1812 45.3223C31.1812 45.8184 31.5835 46.2207 32.0796 46.2207H56.7098C57.2059 46.2207 57.6083 45.8184 57.6083 45.3223C57.6083 44.8262 57.2059 44.4239 56.7098 44.4239H32.0796C31.5835 44.4239 31.1812 44.8261 31.1812 45.3223Z" fill="#2E2C2D"/>
<path d="M56.7101 47.8544H52.0478C51.5517 47.8544 51.1494 48.2567 51.1494 48.7529C51.1494 49.249 51.5517 49.6513 52.0478 49.6513H56.7101C57.2062 49.6513 57.6085 49.249 57.6085 48.7529C57.6085 48.2567 57.2062 47.8544 56.7101 47.8544Z" fill="#2E2C2D"/>
<path d="M56.71 53.8362H55.2346C54.7385 53.8362 54.3362 54.2385 54.3362 54.7346C54.3362 55.2307 54.7385 55.633 55.2346 55.633H56.71C57.2061 55.633 57.6084 55.2307 57.6084 54.7346C57.6084 54.2385 57.2061 53.8362 56.71 53.8362Z" fill="#2E2C2D"/>
<path d="M51.9397 53.8362H50.4643C49.9682 53.8362 49.5659 54.2385 49.5659 54.7346C49.5659 55.2307 49.9682 55.633 50.4643 55.633H51.9397C52.4358 55.633 52.8381 55.2307 52.8381 54.7346C52.8381 54.2385 52.4359 53.8362 51.9397 53.8362Z" fill="#2E2C2D"/>
<path d="M40.7004 47.8544H32.0798C31.5837 47.8544 31.1814 48.2567 31.1814 48.7529C31.1814 49.249 31.5837 49.6513 32.0798 49.6513H40.7004C41.1965 49.6513 41.5989 49.249 41.5989 48.7529C41.5989 48.2567 41.1965 47.8544 40.7004 47.8544Z" fill="#2E2C2D"/>
</g>
<circle cx="40" cy="40.396" r="39.5" stroke="#0EB155"/>
<circle cx="78.7334" cy="41.5155" r="8" fill="#0EB155" stroke="white" stroke-width="4"/>
<defs>
<clipPath id="clip0">
<rect width="46" height="46" fill="white" transform="translate(16.6667 16.3333)"/>
</clipPath>
</defs>
</svg>
