<svg width="130" height="21" viewBox="0 0 130 21" fill="none" xmlns="http://www.w3.org/2000/svg">
<path fill-rule="evenodd" clip-rule="evenodd" d="M5.18805 3.99394C7.61856 3.67979 14.5146 3.46349 12.6251 13.4421L14.7682 13.2675C13.8296 7.1169 15.7931 3.98055 21.9327 3.67979C11.7498 -1.96718 5.95176 3.89506 5.18805 3.99394Z" fill="#FAC415"/>
<path fill-rule="evenodd" clip-rule="evenodd" d="M14.6679 11.862C15.5123 14.1502 17.7037 15.6787 20.1399 15.6787C23.3398 15.6787 25.9734 13.0414 25.9734 9.83703C25.9734 6.63219 23.3398 3.99487 20.1399 3.99487C19.4497 3.99487 18.7657 4.11744 18.1182 4.35692C15.1168 5.46829 13.5596 8.85544 14.6679 11.862Z" fill="white"/>
<path d="M7.20768 15.6565C10.43 15.6565 13.0423 13.0407 13.0423 9.81387C13.0423 6.58705 10.43 3.97119 7.20768 3.97119C3.98534 3.97119 1.37311 6.58705 1.37311 9.81387C1.37311 13.0407 3.98534 15.6565 7.20768 15.6565Z" fill="white"/>
<path d="M7.12387 10.8367C7.71948 10.8367 8.20232 10.3532 8.20232 9.75671C8.20232 9.16027 7.71948 8.67676 7.12387 8.67676C6.52825 8.67676 6.04541 9.16027 6.04541 9.75671C6.04541 10.3532 6.52825 10.8367 7.12387 10.8367Z" fill="#EE6946"/>
<path d="M20.126 10.8361C20.7214 10.8361 21.204 10.3528 21.204 9.75669C21.204 9.16053 20.7214 8.67725 20.126 8.67725C19.5307 8.67725 19.0481 9.16053 19.0481 9.75669C19.0481 10.3528 19.5307 10.8361 20.126 10.8361Z" fill="#00AF87"/>
<path fill-rule="evenodd" clip-rule="evenodd" d="M25.3475 5.96624C25.6191 5.03255 26.0506 4.15345 26.6235 3.36859L22.2937 3.36498C19.7048 1.7417 16.6993 0.906372 13.6455 0.960962C10.5166 0.894012 7.43446 1.74016 4.77715 3.39588L0.714294 3.39794C1.28207 4.17714 1.71149 5.04852 1.98407 5.97345C1.16481 7.08791 0.722523 8.4367 0.722523 9.82102C0.722523 13.3817 3.64829 16.3116 7.20406 16.3116C9.17223 16.3116 11.037 15.4134 12.2662 13.8736L13.647 15.9439L15.0413 13.856C16.2699 15.4268 18.1553 16.3455 20.1476 16.3455C23.7059 16.3455 26.6343 13.4131 26.6343 9.84986C26.6343 8.4506 26.1827 7.08791 25.3475 5.96624ZM19.9331 3.34696C16.6371 3.44275 13.916 6.04864 13.6727 9.34155C13.4274 6.01672 10.6662 3.39279 7.33778 3.32172C9.33578 2.49051 11.4819 2.07285 13.6455 2.09345C15.806 2.061 17.9495 2.48794 19.9331 3.34696ZM7.20766 14.9988H7.20715C4.36624 14.9988 2.02881 12.6582 2.02881 9.81329C2.02881 6.96792 4.36624 4.62725 7.20715 4.62725C10.0481 4.62725 12.386 6.96792 12.386 9.81329V9.81432C12.3824 12.6576 10.047 14.9957 7.20766 14.9988ZM21.9337 14.7048C19.2687 15.6884 16.2668 14.3036 15.2814 11.6354V11.6338C15.0701 11.0591 14.9615 10.4519 14.9615 9.83956C14.9615 6.99418 17.2995 4.65351 20.1404 4.65351C22.9818 4.65351 25.3193 6.99418 25.3193 9.83956C25.3193 12.0062 23.9636 13.9544 21.9337 14.7048ZM7.12795 6.54768H7.12332C5.36498 6.54768 3.91881 7.99637 3.91881 9.75664C3.91881 11.5174 5.36498 12.9656 7.12332 12.9656C8.88115 12.9656 10.3278 11.5174 10.3278 9.75664V9.75613C10.3247 7.99895 8.88269 6.55283 7.12795 6.54768ZM7.12795 11.8604H7.12384C5.97132 11.8604 5.02246 10.9108 5.02246 9.75664C5.02246 8.60253 5.97132 7.65287 7.12384 7.65287C8.27584 7.65287 9.22418 8.60253 9.22469 9.75613C9.22212 10.9082 8.27789 11.8553 7.12795 11.8604ZM20.126 6.54768H20.1245C18.3661 6.54768 16.9199 7.99637 16.9199 9.75664C16.9199 11.5174 18.3661 12.9656 20.1245 12.9656C21.8823 12.9656 23.329 11.5174 23.329 9.75664V9.75613C23.3264 7.9974 21.8823 6.55077 20.126 6.54768ZM20.126 11.8604H20.125C18.9725 11.8604 18.0241 10.9108 18.0241 9.75664C18.0241 8.60253 18.9725 7.65287 20.125 7.65287C21.2775 7.65287 22.2258 8.60253 22.2263 9.75613C22.2248 10.9097 21.2775 11.8584 20.126 11.8604Z" fill="black"/>
<path fill-rule="evenodd" clip-rule="evenodd" d="M92.7349 2.63524C92.7349 3.32122 93.2991 3.88514 93.9836 3.88514C94.6691 3.88514 95.2328 3.3207 95.2328 2.63472C95.2328 1.94823 94.6692 1.38379 93.9841 1.38379C93.2986 1.38482 92.7349 1.94926 92.7349 2.63524Z" fill="#00AF87"/>
<path fill-rule="evenodd" clip-rule="evenodd" d="M33.4059 2.54879L31.5139 3.20181V5.6769H29.4146V7.33623H31.4532V12.6629C31.4532 15.1987 32.3167 16.2318 34.4314 16.2318C34.9596 16.2334 35.4857 16.1644 35.9959 16.0258L36.0787 16.0037L36.055 14.2851L35.9095 14.3361C35.5927 14.4628 35.2568 14.5364 34.9164 14.554C33.9233 14.554 33.5535 13.9916 33.5535 12.4811V7.33623H35.9763V5.6769H33.5535V2.4978L33.4059 2.54879ZM39.9548 7.35734V5.6769H38.036V16.0505H40.1359V10.8434C40.1359 8.65926 41.0508 7.45674 42.7114 7.45674C42.9675 7.45931 43.2226 7.49897 43.4674 7.57416L43.6052 7.6133L43.6731 5.56411L42.7706 5.49459C41.5486 5.5018 40.4414 6.23464 39.9548 7.35734ZM54.9452 5.43382C53.5351 5.423 52.219 6.15636 51.4841 7.36146V5.6769H49.5648V20.2771H51.6656V14.6158C52.4016 15.6452 53.6024 16.2437 54.866 16.2107C57.5218 16.2107 59.2375 14.0328 59.2375 10.6611C59.2375 7.5345 57.5131 5.43382 54.9452 5.43382ZM54.361 14.5128C52.6994 14.5128 51.6656 13.0914 51.6656 10.8022C51.6656 8.59798 52.7559 7.17349 54.4423 7.17349C56.0664 7.17349 57.0358 8.52227 57.0358 10.7831C57.0358 13.0836 56.0108 14.5128 54.361 14.5128Z" fill="black"/>
<path fill-rule="evenodd" clip-rule="evenodd" d="M65.3739 5.43382C64.1859 5.41322 63.0092 5.6666 61.9343 6.17336L61.869 6.20375L61.8927 7.99903L62.0562 7.90737C62.894 7.397 63.849 7.10963 64.8287 7.07255C66.3495 7.07255 67.2212 7.94599 67.2212 9.46885V9.55794H66.0208C62.5628 9.55794 60.6599 10.812 60.6599 13.0883C60.6599 14.915 62.0325 16.1917 64.0007 16.1917C65.3235 16.2411 66.586 15.6241 67.3621 14.5503V16.0505H69.2619V9.77063C69.2619 6.89282 67.9545 5.43382 65.3739 5.43382ZM67.2212 11.672C67.2212 13.4601 66.1479 14.6132 64.4847 14.6132L64.3638 14.6178C63.4833 14.6178 62.7587 13.8927 62.7587 13.011L62.7592 12.9858C62.7592 11.7276 63.9601 11.0355 66.1412 11.0355H67.2212V11.672ZM78.1852 0.723633V7.08491C77.457 6.01886 76.234 5.3952 74.9447 5.43382C72.3784 5.43382 70.6545 7.55099 70.6545 10.7012C70.6545 13.9457 72.4016 16.2107 74.9046 16.2107C76.3179 16.2462 77.6421 15.5016 78.3467 14.2743V16.0505H80.2861V0.723633H78.1852V0.723633ZM75.4508 14.4716C73.8498 14.4716 72.8557 13.0738 72.8557 10.8228C72.8557 8.56914 73.8585 7.11323 75.4096 7.11323C77.1479 7.11323 78.1852 8.50013 78.1852 10.8228C78.1852 13.0399 77.1114 14.4716 75.4508 14.4716ZM89.6728 5.6769L86.6925 11.6638L83.9406 5.6769H81.5728L86.6504 16.0505L91.8657 5.6769H89.6728ZM94.9268 5.6769H92.9365V16.0505H95.0384V5.6769H94.9268ZM97.5008 8.33636C97.5008 9.7969 98.5026 10.5648 100.35 11.4681C101.516 12.0423 102.126 12.3796 102.126 13.1887C102.126 14.0163 101.375 14.554 100.217 14.554C99.2982 14.5297 98.3972 14.2985 97.5805 13.8762L97.4262 13.8015L97.3563 15.6293L97.4298 15.6591C98.2917 15.999 99.2097 16.1726 100.136 16.1716C102.705 16.1716 104.366 14.9454 104.366 13.0471C104.366 11.464 103.314 10.6626 101.495 9.81132C100.16 9.18559 99.6021 8.81737 99.6021 8.15405C99.6021 7.52112 100.223 7.11323 101.186 7.11323C102.057 7.11375 102.917 7.31048 103.703 7.689L103.853 7.76059L103.948 5.96891L103.863 5.94316C103.034 5.69184 102.173 5.56154 101.307 5.55485C99.0303 5.55485 97.5008 6.6724 97.5008 8.33636ZM110.917 5.43382C107.76 5.43382 105.799 7.51442 105.799 10.8635C105.799 14.213 107.76 16.2936 110.917 16.2936C114.088 16.2936 116.058 14.213 116.058 10.8635C116.058 7.51442 114.088 5.43382 110.917 5.43382ZM110.938 14.574C109.194 14.574 108.02 13.0738 108.02 10.8434C108.02 8.60055 109.194 7.09315 110.938 7.09315C112.711 7.09315 113.856 8.56399 113.856 10.8434C113.856 13.1094 112.711 14.574 110.938 14.574ZM119.933 7.35735V5.6769H118.015V16.0505H120.115V10.8434C120.115 8.65926 121.031 7.45674 122.69 7.45674C122.946 7.45932 123.201 7.49846 123.446 7.57416L123.584 7.6133L123.653 5.56412L122.75 5.49459C121.528 5.50232 120.42 6.23465 119.933 7.35735Z" fill="#00AF87"/>
<path fill-rule="evenodd" clip-rule="evenodd" d="M47.4176 5.67683H45.4268V16.0505H47.5287V5.67683H47.4176ZM45.2242 2.63524C45.2247 3.32173 45.7884 3.88617 46.4739 3.88617C47.1594 3.88617 47.7231 3.32122 47.7231 2.63472C47.7231 1.94874 47.1594 1.38379 46.4739 1.38379C45.7889 1.38482 45.2252 1.94926 45.2242 2.63524Z" fill="black"/>
<path fill-rule="evenodd" clip-rule="evenodd" d="M128.761 4.21071C129.103 4.56143 129.292 5.03471 129.286 5.52499C129.293 6.02763 129.092 6.51122 128.73 6.85884C128.377 7.20595 127.902 7.40217 127.408 7.40577C126.904 7.40577 126.422 7.19874 126.075 6.83309C125.73 6.48547 125.537 6.01527 125.536 5.52499C125.537 5.01669 125.742 4.53001 126.105 4.17415C126.451 3.83013 126.92 3.63855 127.408 3.64318C127.917 3.63752 128.407 3.843 128.761 4.21071ZM126.343 4.41671C126.047 4.70923 125.881 5.10887 125.881 5.52499C125.887 6.36238 126.571 7.05042 127.408 7.05969C127.813 7.05918 128.203 6.90004 128.494 6.61679C129.086 6.02403 129.095 5.05119 128.514 4.44761C128.226 4.14891 127.828 3.98102 127.414 3.9836C127.013 3.97742 126.627 4.13398 126.343 4.41671ZM127.444 4.45225C128.035 4.45225 128.334 4.66443 128.334 5.05016C128.337 5.31487 128.154 5.54817 127.897 5.60739L128.354 6.51328H127.733L127.346 5.69494H127.181V6.51328H126.616V4.45225H127.444ZM127.181 5.35968H127.383C127.63 5.35968 127.753 5.27161 127.753 5.09188C127.753 4.89103 127.624 4.80863 127.352 4.80863H127.181V5.35968Z" fill="#00AF87" fill-opacity="0.5"/>
</svg>
