<svg width="40" height="40" viewBox="0 0 40 40" fill="none" xmlns="http://www.w3.org/2000/svg">
<path d="M20 0C8.97219 0 0 8.97219 0 20C0 31.0277 8.97219 39.9999 20 39.9999C31.0277 39.9999 39.9999 31.0277 39.9999 20C39.9999 8.97219 31.0278 0 20 0ZM20 38.2608C9.9304 38.2608 1.7391 30.0695 1.7391 20C1.7391 9.9304 9.9304 1.7391 20 1.7391C30.0695 1.7391 38.2608 9.9304 38.2608 20C38.2608 30.0695 30.0695 38.2608 20 38.2608Z" fill="#2E2C2D"/>
<path d="M19.9997 19.1304C13.7666 19.1304 8.69531 24.2017 8.69531 30.4347C8.69531 30.9147 9.0849 31.3043 9.5649 31.3043C10.0449 31.3043 10.4345 30.9147 10.4345 30.4347C10.4345 25.1599 14.7249 20.8695 19.9997 20.8695C25.2745 20.8695 29.5649 25.1599 29.5649 30.4347C29.5649 30.9147 29.9545 31.3042 30.4345 31.3042C30.9145 31.3042 31.3041 30.9147 31.3041 30.4347C31.3041 24.2017 26.2327 19.1304 19.9997 19.1304Z" fill="#2E2C2D"/>
<path d="M20.0001 5.21729C16.6436 5.21729 13.9131 7.94769 13.9131 11.3043C13.9131 14.6608 16.6435 17.3912 20.0001 17.3912C23.3566 17.3912 26.087 14.6608 26.087 11.3043C26.087 7.94777 23.3566 5.21729 20.0001 5.21729ZM20.0001 15.6521C17.6036 15.6521 15.6523 13.7008 15.6523 11.3043C15.6523 8.90777 17.6036 6.95647 20.0001 6.95647C22.3965 6.95647 24.3478 8.90777 24.3478 11.3043C24.3478 13.7008 22.3966 15.6521 20.0001 15.6521Z" fill="#2E2C2D"/>
</svg>
