<svg width="53" height="38" viewBox="0 0 53 38" fill="none" xmlns="http://www.w3.org/2000/svg">
<path d="M51.9082 5.8063C51.2974 3.53626 49.5072 1.74609 47.2371 1.13481C43.0896 1.58628e-06 26.4999 0 26.4999 0C26.4999 0 9.91017 3.37085e-06 5.76264 1.09115C3.53626 1.70243 1.70243 3.53626 1.09157 5.8063C0 9.95383 0 18.5541 0 18.5541C0 18.5541 0 27.1981 1.09157 31.302C1.70243 33.572 3.4926 35.3622 5.76264 35.9734C9.95383 37.1082 26.4999 37.1082 26.4999 37.1082C26.4999 37.1082 43.0896 37.1082 47.2371 36.0171C49.5072 35.4058 51.2974 33.6157 51.9082 31.3456C52.9998 27.1981 52.9998 18.5978 52.9998 18.5978C52.9998 18.5978 53.0434 9.95383 51.9082 5.8063Z" fill="#FF0000"/>
<path d="M21.2175 26.4999L35.0128 18.5542L21.2175 10.6084V26.4999Z" fill="white"/>
</svg>
